<svg width="183" height="204" viewBox="0 0 183 204" fill="none" xmlns="http://www.w3.org/2000/svg">
<g clip-path="url(#clip0_7_1224)">
<path opacity="0.7" d="M47.3329 119.642C47.3329 119.642 48.2588 147.186 71.9261 164.852C95.5934 182.518 128.38 182.867 154.923 183.826C181.465 184.785 201.845 169.566 204.908 147.384C207.97 125.202 187.689 119.318 176.673 94.5001C165.656 69.6819 166.636 61.3858 143.334 46.6175C120.033 31.8492 83.6262 42.418 64.541 69.4799C45.4557 96.5419 47.3329 119.642 47.3329 119.642Z" fill="white"/>
<path d="M69.4391 54.4554C58.749 61.3604 49.5437 70.2208 43.2674 81.2665C34.1412 97.3444 33.2612 115.699 39.7118 132.39C43.9732 143.408 51.3132 152.741 59.0955 161.547C69.0911 172.867 78.4366 186.7 92.1312 194.111C113.45 205.635 142.92 201.426 163.44 188.587C176.696 180.29 188.237 165.957 186.413 150.07C185.738 144.192 184.065 138.297 184.706 132.303C185.476 125.121 189.983 119.129 192.467 112.458C195.538 104.218 194.625 96.0493 192.668 87.8505C188.382 69.9014 176.415 54.1775 160.221 44.8843C143.324 35.1918 124.277 34.403 105.19 39.2384C103.099 39.7763 101.014 40.3543 98.9446 40.9873C88.6734 44.1271 78.5215 48.5769 69.4391 54.4554Z" fill="#BE2EA7"/>
<path opacity="0.7" d="M69.4391 54.4554C58.749 61.3604 49.5437 70.2208 43.2674 81.2665C34.1412 97.3444 33.2612 115.699 39.7118 132.39C43.9732 143.408 51.3132 152.741 59.0955 161.547C69.0911 172.867 78.4366 186.7 92.1312 194.111C113.45 205.635 142.92 201.426 163.44 188.587C176.696 180.29 188.237 165.957 186.413 150.07C185.738 144.192 184.065 138.297 184.706 132.303C185.476 125.121 189.983 119.129 192.467 112.458C195.538 104.218 194.625 96.0493 192.668 87.8505C188.382 69.9014 176.415 54.1775 160.221 44.8843C143.324 35.1918 124.277 34.403 105.19 39.2384C103.099 39.7763 101.014 40.3543 98.9446 40.9873C88.6734 44.1271 78.5215 48.5769 69.4391 54.4554Z" fill="white"/>
<path opacity="0.2" d="M123.402 169.647L149.459 152.045C149.459 152.045 164.453 168.606 166.856 170.543L166.854 172.365L168.408 174.724L143.003 193.322L139.992 192.614L123.402 169.647Z" fill="black" fill-opacity="0.7"/>
<path d="M146.482 150.877L121.878 169.214L139.99 192.614L164.595 174.277L146.482 150.877Z" fill="#713C68"/>
<mask id="mask0_7_1224" style="mask-type:luminance" maskUnits="userSpaceOnUse" x="121" y="150" width="44" height="43">
<path d="M146.482 150.877L121.878 169.214L139.99 192.614L164.595 174.277L146.482 150.877Z" fill="white"/>
</mask>
<g mask="url(#mask0_7_1224)">
<path opacity="0.2" d="M151.37 157.189L164.063 173.585L140.598 191.071C134.109 184.911 127.494 176.465 127.494 176.465L151.37 157.189Z" fill="black" fill-opacity="0.7"/>
</g>
<path d="M146.482 150.877L121.878 169.214L139.99 192.614L164.595 174.277L146.482 150.877Z" stroke="#263238" stroke-width="0.736498" stroke-linecap="round" stroke-linejoin="round"/>
<path d="M164.709 172.224C158.559 176.807 149.521 182.558 144.044 185.969C141.192 187.745 139.276 188.897 139.276 188.897C134.674 185.5 121.874 169.217 121.874 169.217L146.477 150.881C146.631 151.081 146.777 151.284 146.926 151.482C156.474 164.231 164.709 172.224 164.709 172.224Z" fill="white"/>
<mask id="mask1_7_1224" style="mask-type:luminance" maskUnits="userSpaceOnUse" x="121" y="150" width="44" height="39">
<path d="M164.709 172.224C158.559 176.807 149.521 182.558 144.044 185.969C141.192 187.745 139.276 188.897 139.276 188.897C134.674 185.5 121.874 169.217 121.874 169.217L146.477 150.881C146.631 151.081 146.777 151.284 146.926 151.482C156.474 164.231 164.709 172.224 164.709 172.224Z" fill="white"/>
</mask>
<g mask="url(#mask1_7_1224)">
<path opacity="0.4" d="M164.709 172.224C158.559 176.808 149.521 182.558 144.044 185.969C138.409 185.115 136.141 182.834 135.035 180.191C133.716 177.056 149.171 173.845 150.755 169.459C151.884 166.33 147.68 157.038 146.932 151.479C156.474 164.231 164.709 172.224 164.709 172.224Z" fill="#713C68"/>
</g>
<path d="M164.709 172.224C158.559 176.807 149.521 182.558 144.044 185.969C141.192 187.745 139.276 188.897 139.276 188.897C134.674 185.5 121.874 169.217 121.874 169.217L146.477 150.881C146.631 151.081 146.777 151.284 146.926 151.482C156.474 164.231 164.709 172.224 164.709 172.224Z" stroke="#263238" stroke-width="0.736498" stroke-linecap="round" stroke-linejoin="round"/>
<path d="M128.258 171.142C128.445 170.562 128.736 170.016 129.117 169.53L129.965 170.35L131.163 169.229C131.563 168.854 132.009 168.401 131.975 167.876C132.498 168.355 133.353 167.856 133.906 167.378C137.724 164.052 141.77 160.984 146.014 158.199" stroke="#263238" stroke-width="0.736498" stroke-linecap="round" stroke-linejoin="round"/>
<path d="M130.554 174.473C130.195 174.457 130.215 173.846 130.555 173.719C130.895 173.592 131.263 173.848 131.431 174.154C131.571 174.074 131.682 173.953 131.75 173.81C131.817 173.667 131.836 173.508 131.806 173.356L132.419 173.472C132.355 173.433 132.301 173.382 132.258 173.322C132.216 173.261 132.188 173.192 132.174 173.12C132.161 173.047 132.163 172.972 132.181 172.899C132.198 172.827 132.231 172.758 132.276 172.697C132.322 172.636 132.379 172.585 132.445 172.546C132.512 172.507 132.585 172.481 132.661 172.47C132.736 172.46 132.813 172.464 132.886 172.484C132.959 172.503 133.027 172.537 133.085 172.583C132.887 172.228 132.8 171.63 133.213 171.548C133.35 171.543 133.487 171.562 133.615 171.607C133.759 171.623 133.906 171.606 134.044 171.557C134.182 171.507 134.308 171.427 134.41 171.323C134.512 171.219 134.588 171.093 134.631 170.957C134.675 170.82 134.686 170.677 134.662 170.538C135.208 170.777 135.83 170.436 136.354 170.095L140.919 167.11C140.834 166.79 140.82 166.338 141.146 166.233C141.336 166.18 141.528 166.293 141.724 166.315C142.006 166.305 142.278 166.196 142.489 166.007C144.502 164.564 146.4 162.972 148.164 161.245" stroke="#263238" stroke-width="0.736498" stroke-linecap="round" stroke-linejoin="round"/>
<path d="M134.084 177.86C134.766 177.624 135.389 177.243 135.907 176.745C135.7 176.572 135.561 176.334 135.513 176.069C135.466 175.804 135.513 175.529 135.646 175.289L136.403 175.392C138.775 174.276 141.017 172.905 143.085 171.306C144.011 170.594 144.902 169.83 145.79 169.068L150.851 164.738" stroke="#263238" stroke-width="0.736498" stroke-linecap="round" stroke-linejoin="round"/>
<path opacity="0.2" d="M128.333 42.7751L127.803 43.0486C127.565 43.1875 127.286 43.2402 127.017 43.197C126.747 43.1538 126.506 43.0176 126.336 42.8131C124.218 40.2764 120.452 39.9913 117.034 41.7579C113.946 43.3506 111.454 46.7529 110.693 50.2659C110.609 50.7193 110.423 51.1521 110.15 51.5332C109.876 51.9142 109.521 52.2341 109.109 52.4698L106.477 53.8298C106.122 54.0262 105.715 54.1083 105.316 54.064C104.917 54.0198 104.548 53.8516 104.261 53.5842C102.072 51.5913 98.6152 51.2628 95.5243 52.857C92.0972 54.6233 89.3583 58.263 88.9069 62.1281C88.8731 62.438 88.7633 62.7377 88.5867 63.0017C88.4102 63.2658 88.172 63.4864 87.8925 63.645L87.3627 63.9185C87.2409 63.9886 87.1446 64.0944 87.0881 64.2202C87.0316 64.346 87.0179 64.4851 87.0491 64.6165L87.4111 66.0091C87.4174 66.0585 87.4342 66.1056 87.4605 66.1477C87.4869 66.1897 87.5221 66.2256 87.564 66.2532C87.6059 66.2807 87.6535 66.2992 87.7038 66.3075C87.7541 66.3158 87.8059 66.3137 87.856 66.3013L88.5966 66.2024C88.8831 66.1624 89.172 66.2203 89.4137 66.3661C89.6553 66.512 89.8348 66.7367 89.9211 67.0018C91.5328 71.2615 95.9415 72.9623 100.179 70.7789C104.263 68.6709 106.815 63.6503 106.344 59.0638C106.311 58.6905 106.373 58.3121 106.526 57.9625C106.679 57.6129 106.918 57.3031 107.22 57.0608C108.046 56.4136 108.985 55.9189 109.987 55.6024C110.307 55.5016 110.65 55.5204 110.948 55.655C111.247 55.7896 111.479 56.0302 111.599 56.3289C113.346 60.2726 117.59 61.7938 121.681 59.6828C125.926 57.4997 128.521 52.2003 127.808 47.4687C127.762 47.1397 127.795 46.8025 127.906 46.4838C128.017 46.1651 128.202 45.8738 128.446 45.6329L129.061 45.0386C129.148 44.9596 129.213 44.86 129.249 44.7499C129.285 44.6399 129.29 44.5234 129.265 44.4125L128.906 43.0183C128.9 42.9568 128.877 42.8984 128.84 42.8488C128.803 42.7992 128.753 42.7603 128.696 42.7357C128.638 42.7112 128.574 42.7019 128.51 42.7088C128.447 42.7157 128.386 42.7385 128.333 42.7751ZM99.8787 69.5995C95.9285 71.6363 91.8327 69.7931 90.7174 65.5038C89.6021 61.2145 91.8934 56.0531 95.8407 54.0369C99.7879 52.0207 103.887 53.8433 104.999 58.1341C106.111 62.4249 103.819 67.5671 99.8787 69.5995ZM105.832 56.7557C105.752 56.5323 105.659 56.3053 105.554 56.0748C105.518 55.9804 105.517 55.8754 105.553 55.7785C105.588 55.6816 105.658 55.5992 105.749 55.5461L110.463 53.1164C110.503 53.0939 110.549 53.0819 110.595 53.0815C110.641 53.0811 110.685 53.0923 110.725 53.114C110.764 53.1357 110.797 53.1672 110.819 53.2054C110.842 53.2435 110.854 53.2871 110.854 53.3317C110.879 53.5886 110.91 53.8425 110.95 54.0966C108.61 54.4379 106.763 55.8813 105.832 56.7557ZM121.374 58.5064C117.424 60.5433 113.328 58.7 112.216 54.4092C111.105 50.1184 113.389 44.96 117.336 42.9438C121.284 40.9277 125.382 42.7502 126.498 47.0395C127.613 51.3288 125.325 56.4695 121.374 58.5064Z" fill="black" fill-opacity="0.7"/>
<path d="M125.219 45.121L95.9506 62.8131C95.2596 63.2309 94.6618 63.7824 94.196 64.4321C93.7302 65.0818 93.4066 65.8153 93.2461 66.5851L91.5151 74.9382C91.4996 75.0156 91.5022 75.0949 91.5225 75.1701C91.5429 75.2454 91.5806 75.3147 91.6328 75.3729C91.685 75.4311 91.7504 75.4767 91.8241 75.5063C91.8977 75.536 91.9778 75.5488 92.0584 75.544C92.4122 75.5216 92.7515 75.3838 93.0214 75.153C93.2912 74.9221 93.4758 74.6117 93.5452 74.272L95.1561 66.57C95.2509 66.1096 95.4427 65.6706 95.719 65.2808C95.9954 64.891 96.3504 64.5591 96.7614 64.306L125.898 46.3537L125.219 45.121Z" fill="#263238"/>
<path d="M84.4819 66.1611L115.545 51.8089C116.28 51.4713 117.076 51.2856 117.88 51.2639C118.684 51.2422 119.478 51.385 120.212 51.6831L128.175 54.8887C128.248 54.9185 128.313 54.9643 128.365 55.0227C128.417 55.0812 128.454 55.1506 128.474 55.226C128.493 55.3013 128.495 55.3805 128.479 55.4577C128.463 55.5348 128.429 55.6079 128.38 55.6715C128.165 55.9517 127.862 56.1562 127.519 56.2517C127.176 56.3473 126.813 56.3283 126.49 56.1978L119.136 53.2429C118.696 53.0657 118.22 52.9807 117.738 52.9935C117.256 53.0063 116.78 53.1166 116.338 53.3173L85.1222 67.4149L84.4819 66.1611Z" fill="#263238"/>
<path d="M104.29 59.6748C104.706 59.5723 105.809 62.1083 105.315 63.3482C104.82 64.5881 103.008 62.9061 102.904 62.0593C102.8 61.2124 102.985 59.9886 104.29 59.6748Z" fill="#BE2EA7" stroke="#263238" stroke-width="0.736498" stroke-linecap="round" stroke-linejoin="round"/>
<path d="M109.582 56.9428C109.262 57.2243 110.702 59.5529 112.016 59.8909C113.33 60.229 112.98 57.7593 112.344 57.1907C111.708 56.6221 110.589 56.0659 109.582 56.9428Z" fill="#BE2EA7" stroke="#263238" stroke-width="0.736498" stroke-linecap="round" stroke-linejoin="round"/>
<path opacity="0.5" d="M87.7247 59.9337C88.7657 57.8653 91.2172 54.0424 95.9747 54.5404C100.732 55.0384 103.089 56.8252 103.73 60.3731C104.371 63.9211 103.879 69.2641 97.9265 71.0075C91.9741 72.7509 84.4926 66.3582 87.7247 59.9337Z" fill="#BE2EA7"/>
<path opacity="0.5" d="M109.385 49.1019C110.426 47.0335 112.872 43.2088 117.63 43.7068C122.387 44.2048 124.747 45.9901 125.385 49.5396C126.023 53.089 125.537 58.4291 119.582 60.1739C113.626 61.9188 106.142 55.5117 109.385 49.1019Z" fill="#BE2EA7"/>
<path d="M125.664 44.3805L125.134 44.654C124.872 44.7905 124.577 44.8509 124.285 44.8277C123.993 44.8046 123.717 44.6989 123.491 44.5236C120.735 42.374 116.585 42.3253 113.158 44.0916C111.647 44.8773 110.356 46.0204 109.408 47.412C108.46 48.8037 107.887 50.3976 107.743 52.042C107.72 52.4631 107.585 52.8744 107.35 53.235C107.116 53.5957 106.79 53.8933 106.406 54.0982L103.772 55.455C103.382 55.6518 102.949 55.7468 102.516 55.7308C102.083 55.7147 101.665 55.588 101.305 55.3634C99.8685 54.5344 98.2268 54.0834 96.536 54.0534C94.8453 54.0235 93.1617 54.4155 91.6456 55.1922C88.22 56.9618 85.8725 60.3621 86.0583 63.8401C86.0717 64.1248 85.9994 64.4097 85.8503 64.6598C85.7011 64.91 85.4815 65.1146 85.2184 65.2487L84.6885 65.5222C84.5731 65.5823 84.4855 65.6838 84.4449 65.8043C84.4044 65.9249 84.4141 66.0548 84.472 66.1655L85.1152 67.3987C85.1642 67.4906 85.2432 67.5634 85.3402 67.6059C85.4372 67.6485 85.5468 67.6586 85.6523 67.6345L86.4427 67.5018C86.7477 67.4468 87.0599 67.4777 87.3422 67.5907C87.6246 67.7038 87.8651 67.8944 88.0354 68.1398C89.2247 69.9543 91.0688 71.2624 93.2196 71.8174C95.3705 72.3724 97.6795 72.1359 99.7112 71.1525C101.743 70.1691 103.357 68.5068 104.248 66.4791C105.14 64.4514 105.248 62.1985 104.551 60.1454C104.452 59.8225 104.458 59.475 104.567 59.1492C104.676 58.8234 104.884 58.5347 105.163 58.3216C105.986 57.6754 106.922 57.1818 107.923 56.8661C108.263 56.7631 108.624 56.7624 108.958 56.8642C109.292 56.9659 109.583 57.1653 109.792 57.4357C111.076 59.1974 112.994 60.4193 115.182 60.8693C117.371 61.3192 119.677 60.9659 121.664 59.8763C123.65 58.7868 125.177 57.037 125.956 54.9594C126.734 52.8819 126.709 50.6213 125.886 48.6072C125.781 48.3292 125.761 48.0254 125.829 47.7317C125.897 47.4381 126.049 47.1671 126.268 46.9508L126.827 46.3852C126.907 46.3134 126.962 46.2187 126.982 46.1156C127.003 46.0124 126.989 45.9065 126.942 45.814L126.295 44.5823C126.24 44.4746 126.143 44.3932 126.025 44.3555C125.907 44.3178 125.778 44.3268 125.664 44.3805ZM99.3347 69.9141C97.9217 70.6437 96.3306 70.9554 94.7626 70.8096C93.1947 70.6638 91.7205 70.0672 90.5266 69.0952C89.3327 68.1232 88.4728 66.8195 88.0558 65.3492C87.6387 63.8789 87.6832 62.3081 88.1837 60.8356C88.6842 59.363 89.6181 58.055 90.8673 57.077C92.1164 56.099 93.6247 55.495 95.2011 55.3415C96.7775 55.188 98.3512 55.4919 99.723 56.2147C101.095 56.9375 102.203 58.0467 102.908 59.4019C103.847 61.2162 103.999 63.3405 103.329 65.3105C102.66 67.2804 101.224 68.9356 99.3347 69.9141ZM103.571 58.1143C103.436 57.91 103.295 57.712 103.148 57.525C103.119 57.4879 103.099 57.4448 103.089 57.3987C103.08 57.3526 103.081 57.3048 103.092 57.2585C103.104 57.2122 103.125 57.1687 103.156 57.131C103.187 57.0933 103.225 57.0624 103.269 57.0405L107.982 54.6075C108.025 54.5821 108.074 54.5663 108.124 54.5615C108.173 54.5568 108.223 54.563 108.27 54.5798C108.316 54.5967 108.358 54.6236 108.391 54.6587C108.425 54.6938 108.45 54.7361 108.464 54.7824C108.535 55.0071 108.616 55.2353 108.7 55.454C106.768 55.8099 104.979 56.7379 103.581 58.1098L103.571 58.1143ZM120.841 58.8166C119.428 59.5462 117.836 59.8578 116.269 59.712C114.701 59.5663 113.226 58.9696 112.032 57.9976C110.839 57.0256 109.979 55.722 109.562 54.2517C109.145 52.7814 109.189 51.2106 109.69 49.738C110.19 48.2655 111.124 46.9574 112.373 45.9794C113.622 45.0014 115.131 44.3975 116.707 44.244C118.283 44.0905 119.857 44.3943 121.229 45.1171C122.601 45.8399 123.709 46.9491 124.413 48.3043C125.354 50.1168 125.507 52.2395 124.839 54.2085C124.171 56.1774 122.737 57.8326 120.851 58.8121L120.841 58.8166Z" fill="#757575" stroke="#263238" stroke-width="0.736498" stroke-linecap="round" stroke-linejoin="round"/>
<path opacity="0.4" d="M92.8201 69.8137C92.8201 69.8137 88.5933 67.5742 88.7317 62.7375C88.8624 58.3855 92.7074 56.1933 94.9509 56.1004L93.89 64.9255C93.5165 63.0501 93.3529 61.1349 93.4019 59.213C93.4019 59.213 91.3121 64.4094 92.8201 69.8137Z" fill="white"/>
<path opacity="0.4" d="M114.187 58.5487C114.187 58.5487 109.962 56.3125 110.1 51.4757C110.229 47.1205 114.074 44.9283 116.316 44.8401L115.236 53.6582C114.442 51.0164 114.768 47.9447 114.768 47.9447C114.768 47.9447 112.673 53.1394 114.187 58.5487Z" fill="white"/>
<path opacity="0.2" d="M61.7478 154.316L64.6013 158.111L63.5998 152.827L39.4787 106.31L37.4741 107.198L61.7478 154.316Z" fill="black" fill-opacity="0.7"/>
<path d="M38.2715 106.149L62.3486 153.024L63.0869 157.43L59.9263 154.256L35.841 107.381C35.7991 107.304 35.7737 107.219 35.7663 107.131C35.759 107.043 35.7698 106.954 35.7981 106.869C35.8264 106.784 35.8717 106.705 35.9312 106.637C35.9908 106.568 36.0635 106.511 36.1451 106.47L37.3502 105.859C37.4319 105.817 37.5209 105.792 37.6118 105.784C37.7027 105.776 37.7938 105.786 37.8796 105.813C37.9655 105.84 38.0444 105.884 38.1117 105.942C38.179 105.999 38.2333 106.07 38.2715 106.149Z" fill="#BE2EA7"/>
<mask id="mask2_7_1224" style="mask-type:luminance" maskUnits="userSpaceOnUse" x="35" y="105" width="29" height="53">
<path d="M38.2715 106.149L62.3486 153.024L63.0869 157.43L59.9263 154.256L35.841 107.381C35.7991 107.304 35.7737 107.219 35.7663 107.131C35.759 107.043 35.7698 106.954 35.7981 106.869C35.8264 106.784 35.8717 106.705 35.9312 106.637C35.9908 106.568 36.0635 106.511 36.1451 106.47L37.3502 105.859C37.4319 105.817 37.5209 105.792 37.6118 105.784C37.7027 105.776 37.7938 105.786 37.8796 105.813C37.9655 105.84 38.0444 105.884 38.1117 105.942C38.179 105.999 38.2333 106.07 38.2715 106.149Z" fill="white"/>
</mask>
<g mask="url(#mask2_7_1224)">
<path opacity="0.2" d="M63.0806 157.434L59.9199 154.26L35.8414 107.381C35.7995 107.304 35.7741 107.219 35.7667 107.131C35.7594 107.043 35.7701 106.954 35.7985 106.869C35.8268 106.785 35.8721 106.706 35.9316 106.637C35.9912 106.569 36.0639 106.512 36.1454 106.47L36.3179 106.394L60.572 153.614L63.0806 157.434Z" fill="black" fill-opacity="0.7"/>
</g>
<path d="M38.2715 106.149L62.3486 153.024L63.0869 157.43L59.9263 154.256L35.841 107.381C35.7991 107.304 35.7737 107.219 35.7663 107.131C35.759 107.043 35.7698 106.954 35.7981 106.869C35.8264 106.784 35.8717 106.705 35.9312 106.637C35.9908 106.568 36.0635 106.511 36.1451 106.47L37.3502 105.859C37.4319 105.817 37.5209 105.792 37.6118 105.784C37.7027 105.776 37.7938 105.786 37.8796 105.813C37.9655 105.84 38.0444 105.884 38.1117 105.942C38.179 105.999 38.2333 106.07 38.2715 106.149Z" stroke="#263238" stroke-width="0.736498" stroke-linecap="round" stroke-linejoin="round"/>
<path d="M36.7385 107.217L60.3585 153.242C60.3853 153.295 60.4226 153.341 60.4684 153.379C60.5141 153.417 60.5673 153.445 60.625 153.462C60.6826 153.48 60.7436 153.486 60.8044 153.48C60.8652 153.474 60.9245 153.457 60.9791 153.429L61.2766 153.298" fill="#BE2EA7"/>
<path d="M36.7385 107.217L60.3585 153.242C60.3853 153.295 60.4226 153.341 60.4684 153.379C60.5141 153.417 60.5673 153.445 60.625 153.462C60.6826 153.48 60.7436 153.486 60.8044 153.48C60.8652 153.474 60.9245 153.457 60.9791 153.429L61.2766 153.298" stroke="#263238" stroke-width="0.736498" stroke-linecap="round" stroke-linejoin="round"/>
<path opacity="0.2" d="M74.5583 159.365L58.2587 97.8132C57.7583 95.9206 58.0571 93.8894 59.0894 92.166C60.1217 90.4427 61.8031 89.1684 63.7638 88.6233L157.49 62.583C158.461 62.3128 159.471 62.2297 160.463 62.3386C161.455 62.4475 162.41 62.7463 163.272 63.2178C164.134 63.6893 164.887 64.3244 165.488 65.0867C166.089 65.849 166.526 66.7237 166.775 67.6607L183.071 129.214C183.321 130.151 183.376 131.133 183.235 132.102C183.094 133.071 182.758 134.01 182.248 134.864C181.737 135.718 181.061 136.471 180.259 137.079C179.457 137.687 178.544 138.139 177.572 138.409L83.8412 164.448C81.8803 164.992 79.8008 164.762 78.0601 163.809C76.3194 162.856 75.0598 161.257 74.5583 159.365Z" fill="black" fill-opacity="0.7"/>
<path d="M57.115 100.907L55.8769 96.2323C55.8528 96.1412 55.8671 96.0434 55.9168 95.9605C55.9665 95.8775 56.0474 95.8161 56.1418 95.7899L58.1847 95.2222L59.6039 100.581L57.561 101.148C57.4672 101.174 57.3678 101.164 57.2842 101.119C57.2007 101.073 57.1399 100.997 57.115 100.907Z" fill="#BE2EA7" stroke="#263238" stroke-width="0.736498" stroke-linecap="round" stroke-linejoin="round"/>
<path d="M64.9559 86.4336L69.7997 85.0875C69.8941 85.0612 69.9942 85.0723 70.078 85.1181C70.1618 85.164 70.2225 85.241 70.2466 85.3321L70.7688 87.3037L65.2167 88.8466L64.6945 86.875C64.6705 86.7845 64.6845 86.6873 64.7335 86.6047C64.7824 86.522 64.8623 86.4605 64.9559 86.4336Z" fill="#BE2EA7" stroke="#263238" stroke-width="0.736498" stroke-linecap="round" stroke-linejoin="round"/>
<path d="M71.5567 84.5973L76.4005 83.2512C76.4949 83.2249 76.595 83.236 76.6789 83.2818C76.7627 83.3277 76.8233 83.4047 76.8474 83.4958L77.3696 85.4674L71.8175 87.0103L71.2953 85.0387C71.2713 84.9482 71.2853 84.851 71.3343 84.7684C71.3832 84.6857 71.4632 84.6242 71.5567 84.5973Z" fill="#BE2EA7" stroke="#263238" stroke-width="0.736498" stroke-linecap="round" stroke-linejoin="round"/>
<path d="M72.9695 158.516L56.6699 96.9641C56.1695 95.0715 56.4683 93.0402 57.5006 91.3169C58.5329 89.5936 60.2142 88.3193 62.1749 87.7742L155.901 61.7339C156.872 61.4636 157.882 61.3806 158.874 61.4895C159.866 61.5984 160.821 61.8972 161.683 62.3687C162.545 62.8402 163.298 63.4753 163.899 64.2376C164.5 64.9999 164.938 65.8745 165.186 66.8115L181.482 128.365C181.732 129.302 181.788 130.283 181.646 131.253C181.505 132.222 181.169 133.161 180.659 134.015C180.148 134.869 179.472 135.622 178.67 136.23C177.868 136.838 176.955 137.29 175.983 137.56L82.2524 163.598C80.2914 164.143 78.212 163.913 76.4712 162.96C74.7305 162.007 73.4709 160.408 72.9695 158.516Z" fill="#BE2EA7" stroke="#263238" stroke-width="0.736498" stroke-linecap="round" stroke-linejoin="round"/>
<path d="M176.01 136.69L81.799 162.867C80.9685 163.099 80.1042 163.17 79.2555 163.077C78.4069 162.983 77.5904 162.728 76.8529 162.324C76.1154 161.921 75.4712 161.377 74.9573 160.725C74.4433 160.073 74.0697 159.324 73.8577 158.522L57.4335 96.4977C57.0047 94.879 57.2596 93.1414 58.1422 91.667C59.0247 90.1927 60.4628 89.1024 62.1399 88.636L156.355 62.457C158.032 61.9924 159.811 62.1893 161.3 63.0045C162.789 63.8197 163.867 65.1866 164.297 66.8051L180.72 128.827C180.933 129.629 180.979 130.468 180.858 131.297C180.736 132.126 180.448 132.929 180.011 133.659C179.573 134.389 178.995 135.033 178.309 135.553C177.622 136.073 176.841 136.459 176.01 136.69Z" fill="#757575" stroke="#263238" stroke-width="0.736498" stroke-linecap="round" stroke-linejoin="round"/>
<path d="M67.2302 127.071C67.2468 127.138 67.2423 127.21 67.2174 127.276C67.1925 127.343 67.1482 127.402 67.0901 127.445C67.0319 127.488 66.9625 127.514 66.8905 127.519C66.8184 127.525 66.747 127.51 66.685 127.476C66.623 127.442 66.5732 127.39 66.5419 127.328C66.5105 127.266 66.499 127.195 66.5087 127.126C66.5184 127.056 66.5489 126.99 66.5965 126.936C66.644 126.882 66.7065 126.842 66.7761 126.821C66.8236 126.807 66.8733 126.803 66.9222 126.808C66.971 126.813 67.018 126.827 67.0604 126.851C67.1028 126.874 67.1396 126.905 67.1688 126.943C67.198 126.981 67.2188 127.024 67.2302 127.071Z" fill="#999999" stroke="#263238" stroke-width="0.736498" stroke-linecap="round" stroke-linejoin="round"/>
<path d="M68.4028 130.166C68.4391 130.34 68.4049 130.523 68.3072 130.677C68.2095 130.831 68.0558 130.944 67.8779 130.994C67.6999 131.043 67.5113 131.025 67.351 130.942C67.1907 130.86 67.0709 130.719 67.0165 130.55C66.9802 130.376 67.0144 130.193 67.1121 130.039C67.2098 129.885 67.3635 129.772 67.5414 129.722C67.7194 129.673 67.908 129.691 68.0683 129.774C68.2286 129.856 68.3484 129.997 68.4028 130.166Z" fill="#263238"/>
<path d="M66.3407 122.378C66.377 122.552 66.3428 122.735 66.2451 122.889C66.1474 123.043 65.9937 123.157 65.8157 123.206C65.6378 123.256 65.4492 123.237 65.2889 123.155C65.1286 123.072 65.0088 122.932 64.9544 122.763C64.9256 122.674 64.916 122.579 64.9261 122.485C64.9362 122.39 64.9659 122.299 65.0133 122.215C65.0607 122.131 65.1249 122.057 65.2019 121.997C65.2789 121.937 65.3671 121.893 65.4613 121.867C65.5554 121.841 65.6534 121.833 65.7494 121.845C65.8453 121.857 65.9372 121.888 66.0195 121.935C66.1018 121.983 66.1727 122.047 66.2279 122.123C66.2831 122.199 66.3215 122.286 66.3407 122.378Z" fill="#263238"/>
<path d="M68.7966 132.433C68.8221 132.53 68.8173 132.632 68.783 132.728C68.7486 132.823 68.6862 132.908 68.6037 132.97C68.5211 133.033 68.4221 133.071 68.3191 133.079C68.2161 133.087 68.1138 133.066 68.0251 133.017C67.9364 132.969 67.8652 132.895 67.8207 132.806C67.7761 132.717 67.7601 132.616 67.7747 132.517C67.7893 132.417 67.8338 132.323 67.9027 132.246C67.9715 132.169 68.0616 132.113 68.1614 132.086C68.2279 132.067 68.297 132.061 68.3649 132.069C68.4328 132.076 68.4981 132.097 68.5571 132.129C68.6161 132.161 68.6676 132.205 68.7087 132.257C68.7498 132.309 68.7797 132.369 68.7966 132.433Z" fill="#263238"/>
<path d="M161.635 66.7925L178.432 130.217C178.644 131.016 178.518 131.874 178.082 132.602C177.646 133.33 176.937 133.869 176.109 134.1L97.1818 156.031L95.4783 156.522L89.0435 158.308L85.9296 159.174L81.4251 160.416L80.4419 160.689C79.6136 160.919 78.7352 160.822 77.9998 160.42C77.2643 160.017 76.7319 159.343 76.5196 158.543L59.7171 95.0982C59.6119 94.7025 59.5886 94.2881 59.6486 93.8788C59.7086 93.4695 59.8506 93.0733 60.0666 92.7129C60.2826 92.3525 60.5683 92.035 60.9074 91.7786C61.2464 91.5222 61.6321 91.3318 62.0424 91.2185L91.5048 83.0303L95.963 81.7934L100.222 80.6097L105.694 79.0869L107.674 78.5361L157.721 64.6282C158.132 64.5157 158.559 64.4825 158.978 64.5304C159.397 64.5783 159.8 64.7064 160.163 64.9074C160.527 65.1084 160.844 65.3783 161.096 65.7018C161.349 66.0252 161.532 66.3959 161.635 66.7925Z" fill="#263238"/>
<g opacity="0.1">
<path d="M114.4 147.752L80.9162 157.058C80.6985 157.118 80.4678 157.092 80.2746 156.986C80.0814 156.881 79.9416 156.703 79.8857 156.493L74.3329 135.529C74.2784 135.319 74.3125 135.093 74.4277 134.901C74.5429 134.71 74.7299 134.568 74.9479 134.508L108.432 125.202C108.54 125.172 108.652 125.162 108.762 125.175C108.873 125.187 108.979 125.22 109.075 125.272C109.17 125.325 109.254 125.395 109.321 125.48C109.387 125.565 109.435 125.663 109.463 125.767L115.015 146.731C115.043 146.835 115.049 146.944 115.033 147.052C115.017 147.16 114.979 147.264 114.922 147.359C114.865 147.454 114.789 147.538 114.7 147.605C114.61 147.673 114.509 147.723 114.4 147.752ZM75.0325 134.781C74.9623 134.8 74.8963 134.833 74.8383 134.877C74.7803 134.921 74.7315 134.976 74.6946 135.037C74.6578 135.099 74.6336 135.167 74.6234 135.237C74.6133 135.307 74.6174 135.378 74.6356 135.446L80.1869 156.406C80.2049 156.474 80.2365 156.537 80.28 156.593C80.3235 156.648 80.3781 156.694 80.4405 156.728C80.5029 156.762 80.5719 156.783 80.6437 156.791C80.7155 156.799 80.7885 156.793 80.8587 156.773L114.326 147.475C114.396 147.455 114.462 147.422 114.52 147.378C114.578 147.334 114.627 147.28 114.664 147.218C114.701 147.156 114.725 147.089 114.735 147.018C114.745 146.948 114.741 146.877 114.723 146.81L109.175 125.848C109.138 125.711 109.046 125.595 108.92 125.526C108.794 125.457 108.644 125.44 108.502 125.478L75.0325 134.781Z" fill="white"/>
</g>
<path opacity="0.4" d="M89.7631 142.431L98.4991 143.147C98.6631 141.505 98.3509 139.865 97.598 138.413C96.8451 136.962 95.6818 135.758 94.2407 134.939L89.7631 142.431Z" fill="#BE2EA7"/>
<path opacity="0.6" d="M89.6598 142.015L93.9823 134.793C92.6565 134.095 91.1599 133.741 89.6329 133.765L89.6429 137.138L89.6598 142.015Z" fill="#BE2EA7"/>
<path d="M87.4249 134.076L89.3554 141.374L89.3324 133.763C88.689 133.801 88.0496 133.906 87.4249 134.076Z" fill="#BE2EA7"/>
<path opacity="0.1" d="M89.3556 142.515L87.146 134.176C85.6383 134.62 84.2634 135.435 83.156 136.539C82.0485 137.644 81.2467 139.002 80.8289 140.479C80.4111 141.955 80.3919 143.501 80.773 144.964C81.1541 146.427 81.9224 147.757 83.0028 148.823L89.3556 142.515Z" fill="white"/>
<path opacity="0.2" d="M91.7505 150.99C93.4975 150.504 95.0706 149.525 96.2671 148.177C97.4636 146.83 98.2285 145.177 98.4633 143.431L89.575 142.709L83.2014 149.007C84.3088 150.03 85.6773 150.75 87.1748 151.097C88.6724 151.445 90.2483 151.408 91.7505 150.99Z" fill="#BE2EA7"/>
<path d="M100.486 132.075L99.4928 132.351C99.3689 132.385 99.2942 132.51 99.3259 132.63L99.5797 133.588C99.6113 133.708 99.7374 133.777 99.8612 133.742L100.854 133.466C100.978 133.432 101.053 133.307 101.021 133.188L100.767 132.229C100.736 132.11 100.61 132.041 100.486 132.075Z" fill="#BE2EA7"/>
<path d="M106.1 131.065L101.76 132.269C101.738 132.275 101.716 132.277 101.693 132.275C101.671 132.273 101.65 132.266 101.63 132.255C101.611 132.245 101.594 132.23 101.581 132.213C101.567 132.196 101.557 132.176 101.552 132.155C101.546 132.134 101.545 132.112 101.548 132.09C101.551 132.069 101.558 132.048 101.57 132.028C101.581 132.009 101.597 131.992 101.615 131.979C101.633 131.965 101.653 131.955 101.675 131.949L105.998 130.753C106.02 130.747 106.042 130.745 106.065 130.747C106.087 130.749 106.108 130.756 106.128 130.767C106.147 130.777 106.164 130.791 106.177 130.809C106.191 130.826 106.2 130.846 106.206 130.867C106.215 130.906 106.209 130.947 106.189 130.984C106.17 131.02 106.138 131.049 106.1 131.065Z" fill="#BE2EA7"/>
<path d="M104.959 132.133L101.946 132.971C101.924 132.977 101.901 132.979 101.879 132.977C101.856 132.974 101.835 132.968 101.816 132.957C101.796 132.947 101.779 132.932 101.766 132.915C101.753 132.898 101.743 132.878 101.738 132.857C101.727 132.815 101.734 132.769 101.757 132.731C101.78 132.692 101.817 132.664 101.861 132.651L104.874 131.813C104.896 131.807 104.919 131.805 104.941 131.807C104.963 131.809 104.985 131.816 105.004 131.827C105.023 131.837 105.04 131.852 105.054 131.869C105.067 131.886 105.077 131.906 105.082 131.927C105.088 131.948 105.089 131.97 105.086 131.992C105.083 132.013 105.076 132.035 105.064 132.054C105.053 132.073 105.038 132.09 105.02 132.103C105.001 132.117 104.981 132.127 104.959 132.133Z" fill="#BE2EA7"/>
<path opacity="0.6" d="M101.311 135.188L100.318 135.464C100.194 135.498 100.119 135.623 100.151 135.743L100.405 136.701C100.437 136.821 100.563 136.89 100.686 136.855L101.679 136.579C101.803 136.545 101.878 136.42 101.846 136.301L101.592 135.342C101.561 135.223 101.435 135.154 101.311 135.188Z" fill="#BE2EA7"/>
<path d="M106.923 134.175L102.582 135.384C102.538 135.394 102.492 135.389 102.453 135.368C102.415 135.346 102.386 135.312 102.374 135.27C102.363 135.228 102.37 135.182 102.393 135.144C102.416 135.105 102.453 135.077 102.497 135.064L106.84 133.859C106.861 133.853 106.883 133.851 106.905 133.853C106.927 133.856 106.949 133.863 106.968 133.873C106.987 133.883 107.003 133.898 107.017 133.914C107.03 133.931 107.04 133.951 107.045 133.972C107.051 133.992 107.052 134.014 107.049 134.036C107.045 134.057 107.038 134.078 107.027 134.097C107.015 134.116 107 134.132 106.983 134.146C106.965 134.159 106.945 134.169 106.923 134.175Z" fill="#BE2EA7"/>
<path d="M105.781 135.24L102.761 136.081C102.72 136.086 102.678 136.077 102.644 136.055C102.61 136.033 102.585 136 102.575 135.961C102.565 135.922 102.569 135.881 102.588 135.844C102.606 135.807 102.638 135.778 102.676 135.761L105.69 134.924C105.711 134.917 105.734 134.915 105.756 134.917C105.779 134.92 105.8 134.926 105.82 134.937C105.839 134.948 105.856 134.962 105.869 134.979C105.883 134.996 105.892 135.016 105.898 135.037C105.909 135.078 105.903 135.123 105.881 135.16C105.86 135.198 105.824 135.227 105.781 135.24Z" fill="#BE2EA7"/>
<path opacity="0.4" d="M102.374 138.268L101.38 138.546C101.256 138.581 101.182 138.706 101.213 138.825L101.469 139.785C101.501 139.904 101.627 139.973 101.751 139.939L102.745 139.661C102.869 139.626 102.944 139.501 102.912 139.382L102.656 138.422C102.624 138.303 102.498 138.234 102.374 138.268Z" fill="#BE2EA7"/>
<path d="M107.745 137.29L103.424 138.49C103.382 138.495 103.341 138.486 103.307 138.464C103.273 138.442 103.248 138.409 103.238 138.37C103.227 138.331 103.232 138.289 103.25 138.253C103.269 138.216 103.3 138.187 103.339 138.17L107.66 136.97C107.682 136.964 107.704 136.962 107.727 136.964C107.749 136.967 107.77 136.973 107.79 136.984C107.809 136.995 107.826 137.009 107.84 137.026C107.853 137.043 107.863 137.063 107.868 137.084C107.874 137.105 107.875 137.127 107.872 137.149C107.869 137.171 107.862 137.192 107.85 137.211C107.839 137.23 107.824 137.247 107.805 137.261C107.787 137.274 107.767 137.284 107.745 137.29Z" fill="#BE2EA7"/>
<path d="M106.599 138.356L103.586 139.194C103.545 139.199 103.503 139.19 103.469 139.168C103.435 139.146 103.41 139.113 103.4 139.074C103.389 139.035 103.394 138.994 103.413 138.957C103.431 138.92 103.463 138.891 103.501 138.874L106.514 138.037C106.556 138.031 106.597 138.04 106.632 138.062C106.666 138.084 106.69 138.117 106.701 138.156C106.711 138.195 106.706 138.237 106.688 138.273C106.669 138.31 106.638 138.34 106.599 138.356Z" fill="#BE2EA7"/>
<path opacity="0.2" d="M102.961 141.414L101.968 141.69C101.844 141.725 101.77 141.85 101.801 141.969L102.055 142.927C102.087 143.047 102.213 143.116 102.337 143.082L103.33 142.806C103.453 142.771 103.528 142.646 103.496 142.527L103.243 141.569C103.211 141.449 103.085 141.38 102.961 141.414Z" fill="#BE2EA7"/>
<path d="M108.57 140.403L104.249 141.603C104.205 141.615 104.158 141.609 104.12 141.588C104.081 141.567 104.052 141.531 104.041 141.489C104.035 141.468 104.033 141.446 104.036 141.424C104.04 141.403 104.047 141.381 104.058 141.362C104.07 141.343 104.085 141.326 104.103 141.313C104.121 141.299 104.142 141.289 104.164 141.283L108.502 140.076C108.524 140.07 108.546 140.068 108.569 140.07C108.591 140.073 108.612 140.079 108.632 140.09C108.651 140.1 108.668 140.115 108.681 140.132C108.695 140.149 108.704 140.169 108.71 140.19C108.717 140.212 108.718 140.236 108.715 140.26C108.711 140.284 108.703 140.306 108.689 140.327C108.676 140.347 108.658 140.364 108.638 140.377C108.617 140.391 108.594 140.4 108.57 140.403Z" fill="#BE2EA7"/>
<path d="M107.431 141.467L104.418 142.304C104.396 142.311 104.373 142.313 104.351 142.31C104.329 142.308 104.307 142.301 104.288 142.291C104.268 142.28 104.251 142.266 104.238 142.249C104.225 142.231 104.215 142.212 104.21 142.191C104.204 142.17 104.202 142.148 104.205 142.126C104.208 142.104 104.216 142.083 104.227 142.064C104.239 142.045 104.254 142.028 104.272 142.014C104.29 142.001 104.311 141.991 104.333 141.985L107.346 141.147C107.39 141.135 107.436 141.14 107.475 141.162C107.514 141.183 107.543 141.218 107.554 141.261C107.56 141.282 107.562 141.304 107.558 141.325C107.555 141.347 107.548 141.368 107.536 141.387C107.525 141.407 107.51 141.424 107.492 141.437C107.474 141.451 107.453 141.461 107.431 141.467Z" fill="#BE2EA7"/>
<path opacity="0.1" d="M103.788 144.531L102.795 144.807C102.671 144.841 102.596 144.966 102.628 145.085L102.881 146.044C102.913 146.163 103.039 146.232 103.163 146.198L104.156 145.922C104.28 145.887 104.355 145.763 104.323 145.643L104.069 144.685C104.037 144.565 103.911 144.496 103.788 144.531Z" fill="white"/>
<path d="M109.395 143.517L105.074 144.716C105.03 144.728 104.983 144.723 104.945 144.702C104.906 144.68 104.877 144.645 104.866 144.603C104.86 144.582 104.858 144.56 104.861 144.538C104.864 144.516 104.872 144.495 104.883 144.476C104.895 144.457 104.91 144.44 104.928 144.426C104.946 144.413 104.967 144.403 104.989 144.397L109.327 143.19C109.348 143.183 109.371 143.181 109.394 143.184C109.416 143.186 109.437 143.193 109.457 143.203C109.476 143.214 109.493 143.228 109.506 143.245C109.52 143.263 109.529 143.282 109.535 143.303C109.542 143.326 109.543 143.35 109.54 143.373C109.536 143.397 109.528 143.42 109.514 143.44C109.501 143.46 109.483 143.478 109.463 143.491C109.442 143.504 109.419 143.513 109.395 143.517Z" fill="#BE2EA7"/>
<path d="M108.256 144.58L105.239 145.419C105.217 145.425 105.195 145.426 105.173 145.424C105.151 145.421 105.13 145.414 105.111 145.404C105.092 145.393 105.075 145.379 105.062 145.361C105.049 145.344 105.04 145.325 105.034 145.304C105.028 145.283 105.026 145.261 105.029 145.239C105.032 145.217 105.039 145.196 105.051 145.176C105.062 145.157 105.078 145.14 105.096 145.127C105.114 145.113 105.135 145.103 105.158 145.098L108.171 144.26C108.194 144.25 108.218 144.245 108.243 144.245C108.268 144.246 108.292 144.251 108.314 144.261C108.336 144.271 108.356 144.286 108.371 144.304C108.387 144.322 108.398 144.344 108.404 144.367C108.41 144.39 108.411 144.414 108.407 144.438C108.403 144.462 108.393 144.485 108.379 144.505C108.365 144.525 108.347 144.542 108.325 144.555C108.304 144.568 108.281 144.576 108.256 144.58Z" fill="#BE2EA7"/>
<g opacity="0.1">
<path d="M167.917 108.667L113.493 123.791C113.275 123.852 113.088 123.994 112.972 124.185C112.857 124.377 112.823 124.602 112.878 124.813L113.259 126.259L113.334 126.537L113.85 128.486L113.924 128.764L114.438 130.711L114.511 130.985L115.027 132.935L115.1 133.209L115.616 135.159L115.69 135.436L116.205 137.383L116.279 137.66L116.793 139.607L116.868 139.884L117.382 141.831L117.457 142.108L117.971 144.055L118.045 144.332L118.43 145.777C118.458 145.881 118.506 145.979 118.573 146.064C118.639 146.149 118.723 146.22 118.819 146.273C118.915 146.326 119.021 146.359 119.131 146.371C119.242 146.384 119.354 146.375 119.462 146.345L173.877 131.225C174.094 131.163 174.28 131.021 174.393 130.829C174.507 130.638 174.54 130.412 174.484 130.203L174.102 128.757L174.027 128.479L173.513 126.533L173.439 126.255L172.923 124.305L172.85 124.031L172.336 122.084L172.261 121.807L171.747 119.86L171.672 119.583L171.157 117.633L171.084 117.359L170.568 115.409L170.495 115.135L169.981 113.188L169.906 112.911L169.39 110.961L169.316 110.683L168.934 109.237C168.879 109.029 168.742 108.853 168.552 108.746C168.362 108.639 168.134 108.611 167.917 108.667ZM174.213 130.276C174.248 130.413 174.227 130.559 174.152 130.684C174.078 130.808 173.957 130.901 173.816 130.941L119.405 146.06C119.262 146.099 119.111 146.082 118.985 146.013C118.858 145.944 118.766 145.829 118.728 145.692L118.347 144.246L173.828 128.831L174.213 130.276ZM173.751 128.539L118.268 143.958L117.752 142.009L173.233 126.594L173.751 128.539ZM173.169 126.312L117.685 141.747L117.169 139.798L172.649 124.38L173.169 126.312ZM172.587 124.085L117.102 139.501L116.588 137.554L172.068 122.137L172.587 124.085ZM172.005 121.858L116.52 137.274L116.006 135.327L171.487 119.913L172.005 121.858ZM171.423 119.631L115.938 135.047L115.423 133.097L170.904 117.683L171.423 119.631ZM170.839 117.401L115.356 132.82L114.842 130.873L170.322 115.456L170.839 117.401ZM170.257 115.174L114.739 130.624L114.225 128.677L169.705 113.26L170.257 115.174ZM169.677 112.95L114.151 128.4L113.635 126.45L169.116 111.036L169.677 112.95ZM113.605 126.137L113.225 124.694C113.207 124.626 113.203 124.555 113.213 124.485C113.223 124.415 113.247 124.347 113.284 124.286C113.321 124.224 113.37 124.169 113.428 124.125C113.486 124.081 113.552 124.049 113.622 124.029L167.978 108.95C168.12 108.911 168.269 108.928 168.395 108.997C168.52 109.066 168.61 109.182 168.646 109.318L169.028 110.764L113.605 126.137Z" fill="white"/>
</g>
<g opacity="0.1">
<path d="M157.896 71.3058L65.1748 97.0679C65.0516 97.1021 64.9358 97.1594 64.834 97.2366C64.7323 97.3138 64.6466 97.4093 64.5819 97.5177C64.5172 97.6261 64.4747 97.7452 64.457 97.8682C64.4392 97.9911 64.4465 98.1156 64.4783 98.2344L73.1525 130.993C73.2166 131.232 73.3761 131.434 73.5962 131.555C73.8163 131.676 74.0792 131.705 74.3275 131.637L167.052 105.874C167.3 105.804 167.512 105.643 167.643 105.425C167.774 105.207 167.812 104.95 167.75 104.711L159.074 71.9487C159.043 71.8298 158.987 71.7188 158.911 71.622C158.835 71.5253 158.739 71.4448 158.63 71.3851C158.52 71.3253 158.399 71.2876 158.273 71.274C158.147 71.2604 158.019 71.2712 157.896 71.3058ZM88.8538 107.146L95.2905 105.355L96.2238 108.886L89.7754 110.679L88.8538 107.146ZM89.497 110.744L83.0423 112.558L82.1076 109.024L88.5559 107.231L89.497 110.744ZM95.5879 105.278L102.04 103.484L102.974 107.019L96.5259 108.811L95.5879 105.278ZM128.912 95.7207L122.464 97.5129L121.526 93.9799L127.978 92.1862L128.912 95.7207ZM128.269 92.123L134.721 90.3293L135.655 93.8639L129.207 95.6561L128.269 92.123ZM109.069 101.551L115.52 99.7574L116.455 103.292L109.984 105.059L109.069 101.551ZM109.712 105.149L103.263 106.941L102.314 103.409L108.765 101.615L109.712 105.149ZM115.799 99.6651L122.232 97.8756L123.167 101.41L116.719 103.202L115.799 99.6651ZM122.535 97.7921L128.987 95.9983L129.921 99.5329L123.473 101.325L122.535 97.7921ZM122.176 97.5937L115.728 99.386L114.79 95.8529L121.243 94.0624L122.176 97.5937ZM115.44 99.4668L108.992 101.259L108.054 97.726L114.497 95.932L115.44 99.4668ZM108.7 101.357L102.25 103.146L101.3 99.5873L107.752 97.7936L108.7 101.357ZM101.952 103.212L95.5033 105.005L94.5652 101.472L101.017 99.6778L101.952 103.212ZM103.035 107.302L103.97 110.829L97.522 112.621L96.5874 109.086L103.035 107.302ZM103.323 107.221L109.771 105.429L110.706 108.964L104.258 110.756L103.323 107.221ZM110.059 105.348L116.507 103.556L117.442 107.091L110.997 108.881L110.059 105.348ZM116.795 103.475L123.245 101.686L124.178 105.218L117.73 107.01L116.795 103.475ZM123.532 101.605L129.981 99.8133L130.915 103.348L124.467 105.14L123.532 101.605ZM130.268 99.7324L136.717 97.9402L137.652 101.475L131.203 103.267L130.268 99.7324ZM130.195 99.4581L129.257 95.925L135.709 94.1313L136.644 97.6658L130.195 99.4581ZM135.993 94.052L142.445 92.2582L143.38 95.7928L136.932 97.585L135.993 94.052ZM142.729 92.1789L149.183 90.3884L150.116 93.9197L143.668 95.712L142.729 92.1789ZM142.66 91.903L141.722 88.37L148.183 86.5877L149.118 90.1063L142.66 91.903ZM142.372 91.9839L135.922 93.7728L134.984 90.2398L141.438 88.4493L142.372 91.9839ZM134.905 89.9684L133.97 86.4338L140.418 84.6416L141.383 88.1627L134.905 89.9684ZM134.62 90.0477L128.17 91.8367L127.234 88.3069L133.682 86.5147L134.62 90.0477ZM127.883 91.9175L121.431 93.7112L120.496 90.1767L126.945 88.3845L127.883 91.9175ZM121.147 93.7906L114.709 95.5895L113.775 92.055L120.223 90.2627L121.147 93.7906ZM114.409 95.6604L107.971 97.4481L107.033 93.915L113.483 92.126L114.409 95.6604ZM107.686 97.5354L101.238 99.3276L100.283 95.7941L106.762 93.9884L107.686 97.5354ZM100.95 99.4084L94.4985 101.202L93.5638 97.6676L100.016 95.8851L100.95 99.4084ZM94.2166 101.269L87.7683 103.061L86.8302 99.5279L93.28 97.7389L94.2166 101.269ZM94.2911 101.546L95.2257 105.081L88.7774 106.873L87.8393 103.34L94.2911 101.546ZM88.4897 106.954L82.0399 108.743L81.1019 105.21L87.555 103.419L88.4897 106.954ZM81.7522 108.824L75.3073 110.614L74.3692 107.081L80.8209 105.288L81.7522 108.824ZM81.8267 109.101L82.7613 112.636L76.313 114.428L75.3783 110.894L81.8267 109.101ZM82.8401 112.923L83.7748 116.458L77.3264 118.25L76.3917 114.716L82.8401 112.923ZM83.1292 112.846L89.5776 111.054L90.5122 114.588L84.0625 116.377L83.1292 112.846ZM89.8653 110.973L96.304 109.177L97.2387 112.712L90.7773 114.502L89.8653 110.973ZM97.3174 112.999L98.2521 116.533L91.8023 118.322L90.8676 114.788L97.3174 112.999ZM97.6051 112.918L104.053 111.126L104.994 114.646L98.5422 116.44L97.6051 112.918ZM104.341 111.045L110.789 109.253L111.724 112.787L105.276 114.58L104.341 111.045ZM111.058 109.165L117.537 107.359L118.471 110.894L112.01 112.703L111.058 109.165ZM117.794 107.292L124.242 105.5L125.177 109.034L118.729 110.827L117.794 107.292ZM124.53 105.419L130.98 103.63L131.913 107.161L125.465 108.953L124.53 105.419ZM131.267 103.549L137.716 101.757L138.65 105.291L132.202 107.084L131.267 103.549ZM138.003 101.676L144.467 99.8811L145.401 103.416L138.953 105.208L138.003 101.676ZM137.929 101.398L136.996 97.8671L143.453 96.0592L144.388 99.5937L137.929 101.398ZM143.732 95.9941L150.18 94.2019L151.115 97.7364L144.667 99.5286L143.732 95.9941ZM150.487 94.1088L156.935 92.3166L157.87 95.8512L151.421 97.6434L150.487 94.1088ZM150.414 93.8344L149.476 90.3014L155.927 88.5077L156.859 92.0629L150.414 93.8344ZM149.4 90.0125L148.462 86.4794L154.914 84.6857L155.849 88.2395L149.4 90.0125ZM148.383 86.1921L147.45 82.688L153.899 80.8958L154.836 84.4176L148.383 86.1921ZM148.098 86.2682L141.646 88.0619L140.711 84.5273L147.166 82.7673L148.098 86.2682ZM140.638 84.2529L139.715 80.7444L146.152 78.9454L147.09 82.4785L140.638 84.2529ZM140.353 84.329L133.901 86.1227L132.966 82.5882L139.416 80.7992L140.353 84.329ZM133.617 86.2021L127.17 88.0247L126.235 84.4902L132.683 82.698L133.617 86.2021ZM126.881 88.0751L120.429 89.8688L119.494 86.3343L125.942 84.5421L126.881 88.0751ZM120.143 89.9449L113.696 91.7676L112.761 88.233L119.21 86.4408L120.143 89.9449ZM113.407 91.818L106.955 93.6117L106.03 90.1158L112.478 88.3236L113.407 91.818ZM106.673 93.7135L100.22 95.5039L99.2864 91.9726L105.735 90.1804L106.673 93.7135ZM99.9353 95.5833L93.4836 97.377L92.5484 93.8504L99.003 92.0632L99.9353 95.5833ZM93.1993 97.4563L86.7476 99.25L85.8129 95.7155L92.2612 93.9233L93.1993 97.4563ZM86.4816 99.3251L80.0028 101.131L79.0682 97.5963L85.5179 95.8073L86.4816 99.3251ZM86.5527 99.6042L87.4907 103.137L81.0424 104.93L80.1043 101.396L86.5527 99.6042ZM80.7547 105.01L74.3049 106.799L73.3683 103.27L79.8166 101.477L80.7547 105.01ZM74.0172 106.88L67.5689 108.672L66.6308 105.139L73.0825 103.346L74.0172 106.88ZM74.0916 107.158L75.0263 110.692L68.578 112.485L67.6399 108.951L74.0916 107.158ZM75.1051 110.98L76.0398 114.514L69.5914 116.306L68.6567 112.772L75.1051 110.98ZM76.1185 114.802L77.0532 118.336L70.6048 120.128L69.6702 116.594L76.1185 114.802ZM77.1319 118.624L78.0686 122.153L71.6168 123.947L70.6822 120.413L77.1319 118.624ZM77.4196 118.543L83.868 116.751L84.806 120.284L78.3543 122.077L77.4196 118.543ZM84.1557 116.67L90.604 114.877L91.5387 118.412L85.0903 120.204L84.1557 116.67ZM91.6131 118.69L92.5512 122.223L86.0817 123.985L85.147 120.451L91.6131 118.69ZM91.9008 118.609L98.3492 116.817L99.2872 120.35L92.8355 122.143L91.9008 118.609ZM98.6013 116.701L105.051 114.912L105.988 118.442L99.536 120.236L98.6013 116.701ZM105.339 114.831L111.787 113.039L112.726 116.583L106.274 118.377L105.339 114.831ZM112.075 112.958L118.523 111.166L119.461 114.699L113.009 116.493L112.075 112.958ZM118.812 111.088L125.272 109.303L126.21 112.836L119.757 114.626L118.812 111.088ZM125.548 109.215L131.997 107.423L132.935 110.956L126.483 112.75L125.548 109.215ZM132.284 107.342L138.733 105.55L139.671 109.083L133.219 110.877L132.284 107.342ZM139.022 105.473L145.48 103.703L146.418 107.236L139.967 109.03L139.022 105.473ZM145.758 103.599L152.206 101.807L153.15 105.353L146.698 107.147L145.758 103.599ZM145.683 103.322L144.749 99.7873L151.199 97.9983L152.133 101.533L145.683 103.322ZM151.493 97.9337L157.942 96.1415L158.876 99.6761L152.428 101.468L151.493 97.9337ZM158.223 96.0557L164.672 94.2635L165.606 97.798L159.16 99.5855L158.223 96.0557ZM158.15 95.7813L157.216 92.2468L163.664 90.4545L164.588 93.9936L158.15 95.7813ZM157.137 91.9594L156.199 88.4263L162.65 86.6326L163.585 90.1672L157.137 91.9594ZM156.123 88.1375L155.192 84.6478L161.664 82.8259L162.602 86.359L156.123 88.1375ZM155.107 84.317L154.192 80.8199L160.641 79.0277L161.579 82.5608L155.107 84.317ZM154.093 80.4951L153.179 76.998L159.627 75.2058L160.565 78.7389L154.093 80.4951ZM153.809 80.5744L147.357 82.3682L146.422 78.8336L152.871 77.0414L153.809 80.5744ZM146.348 78.556L145.415 75.0247L151.863 73.2325L152.798 76.767L146.348 78.556ZM146.06 78.6368L139.612 80.429L138.677 76.8945L145.126 75.1022L146.06 78.6368ZM139.324 80.5098L132.876 82.3021L131.98 78.8007L138.428 77.0085L139.324 80.5098ZM132.588 82.3829L126.138 84.1719L125.205 80.6406L131.653 78.8483L132.588 82.3829ZM125.851 84.2527L119.435 86.0811L118.5 82.5466L124.948 80.7543L125.851 84.2527ZM119.115 86.1257L112.683 87.9457L111.748 84.4111L118.196 82.6189L119.115 86.1257ZM112.377 87.9955L105.929 89.7877L105.016 86.2939L111.459 84.5079L112.377 87.9955ZM105.645 89.8671L99.1928 91.6608L98.2581 88.1262L104.706 86.334L105.645 89.8671ZM98.9085 91.7401L92.4553 93.5306L91.5221 89.9993L97.9896 88.2413L98.9085 91.7401ZM92.1676 93.6114L85.7193 95.4036L84.8134 91.9068L91.2618 90.1146L92.1676 93.6114ZM85.4349 95.483L78.9832 97.2767L78.0485 93.7421L84.4969 91.9499L85.4349 95.483ZM78.6989 97.356L72.2678 99.1872L71.3346 95.6559L77.7829 93.8637L78.6989 97.356ZM78.7685 97.6319L79.7066 101.165L73.2549 102.959L72.3202 99.4241L78.7685 97.6319ZM72.9706 103.038L66.5466 104.885L65.612 101.351L72.0603 99.5586L72.9706 103.038ZM71.66 124.2L78.105 122.409L79.043 125.942L72.5913 127.736L71.66 124.2ZM78.396 122.327L84.8444 120.534L85.7824 124.068L79.3307 125.861L78.396 122.327ZM85.84 124.353L86.778 127.886L80.3297 129.678L79.3916 126.145L85.84 124.353ZM86.1277 124.272L92.5881 122.47L93.5262 126.003L87.0778 127.796L86.1277 124.272ZM92.8651 122.402L99.3135 120.61L100.252 124.143L93.8153 125.926L92.8651 122.402ZM99.6147 120.523L106.063 118.731L107.001 122.264L100.549 124.058L99.6147 120.523ZM106.361 118.645L112.811 116.856L113.747 120.386L107.284 122.173L106.361 118.645ZM113.098 116.776L119.547 114.983L120.461 118.527L114.013 120.319L113.098 116.776ZM119.834 114.903L126.283 113.11L127.221 116.643L120.769 118.437L119.834 114.903ZM126.57 113.03L133.007 111.247L133.943 114.776L127.492 116.57L126.57 113.03ZM133.308 111.16L139.756 109.368L140.694 112.901L134.243 114.694L133.308 111.16ZM140.044 109.287L146.492 107.494L147.43 111.028L140.982 112.82L140.044 109.287ZM146.781 107.417L153.23 105.625L154.163 109.175L147.71 110.966L146.781 107.417ZM153.517 105.544L159.966 103.752L160.904 107.285L154.452 109.078L153.517 105.544ZM153.443 105.266L152.508 101.732L158.958 99.9427L159.891 103.474L153.443 105.266ZM159.246 99.8619L165.694 98.0697L166.632 101.603L160.173 103.407L159.246 99.8619ZM158.797 72.025L159.562 74.9476L153.113 76.7399L152.179 73.2053L157.975 71.5932C158.145 71.5466 158.325 71.5661 158.477 71.6477C158.629 71.7292 158.74 71.8663 158.787 72.0295L158.797 72.025ZM65.2763 97.3336L71.0725 95.7215L72.0105 99.2545L65.5332 101.063L64.7641 98.1583C64.7417 98.0756 64.7366 97.9888 64.7489 97.9031C64.7612 97.8174 64.7908 97.7343 64.8359 97.6588C64.8809 97.5832 64.9407 97.5167 65.0116 97.4629C65.0826 97.4092 65.1633 97.3693 65.2492 97.3455L65.2763 97.3336ZM73.4638 130.902L72.6947 127.997L79.1445 126.208L80.0811 129.738L74.2559 131.366C74.0823 131.414 73.8986 131.393 73.7451 131.308C73.5916 131.223 73.4807 131.081 73.4368 130.914L73.4638 130.902ZM166.979 105.6L161.178 107.21L160.243 103.675L166.692 101.883L167.462 104.791C167.506 104.958 167.48 105.136 167.389 105.288C167.299 105.439 167.151 105.551 166.979 105.6Z" fill="white"/>
</g>
<path opacity="0.5" d="M164.75 94.5398L167.46 104.785C167.481 104.864 167.486 104.947 167.474 105.029C167.462 105.111 167.434 105.19 167.391 105.263C167.347 105.335 167.29 105.398 167.222 105.45C167.154 105.501 167.077 105.539 166.995 105.562L74.2202 131.34C74.1383 131.362 74.0531 131.369 73.9695 131.36C73.8859 131.35 73.8056 131.325 73.733 131.285C73.6605 131.245 73.5972 131.191 73.5468 131.127C73.4963 131.062 73.4598 130.988 73.4391 130.909L73.0755 129.541C73.0755 129.541 75.7662 124.559 78.4954 123.801C81.7179 122.906 82.9924 124.314 85.8693 123.505C88.7462 122.697 89.048 115.381 91.6536 114.654C93.0616 114.263 93.8324 115.09 94.8748 115.7C95.3343 115.989 95.8562 116.175 96.404 116.245C96.9518 116.315 97.5123 116.267 98.0463 116.105L98.1549 116.076C101.683 115.096 98.6876 96.2255 103.541 94.8759C105.7 94.2729 108.151 97.6442 110.579 101.492C113.647 106.345 116.667 111.996 118.911 111.356C122.936 110.237 120.963 102.294 124.706 101.269C127.057 100.615 129.601 104.187 132.839 106.476C134.753 107.83 136.913 108.736 139.419 108.038C141.702 107.415 142.916 106.295 143.697 105.052C145.229 102.623 145.095 99.6924 147.994 98.8784C149.715 98.3996 150.832 99.3336 151.932 100.193C152.888 100.935 153.839 101.64 155.163 101.271C156.723 100.84 157.073 98.2778 157.615 95.9139C158.05 93.9662 158.599 92.1468 160.028 91.7392C161.457 91.3315 163.01 92.5574 163.921 93.509C164.219 93.8358 164.495 94.1799 164.75 94.5398Z" fill="#BE2EA7"/>
<path opacity="0.5" d="M161.022 80.4625L167.461 104.788C167.482 104.867 167.487 104.95 167.475 105.032C167.463 105.114 167.435 105.194 167.392 105.266C167.348 105.338 167.291 105.401 167.223 105.453C167.155 105.504 167.078 105.542 166.996 105.565L74.2198 131.34C74.1379 131.362 74.0527 131.369 73.9692 131.359C73.8856 131.35 73.8052 131.325 73.7327 131.285C73.6601 131.245 73.5968 131.191 73.5464 131.126C73.496 131.062 73.4594 130.988 73.4388 130.909L73.0752 129.54C76.9281 128.471 77.7068 125.016 80.2921 124.298C82.8775 123.58 84.8552 124.649 87.275 123.977C89.6947 123.305 90.939 116.647 93.5861 115.913C93.9998 115.795 94.4258 115.729 94.8537 115.717C95.98 115.676 96.9123 116.001 98.0252 116.121C98.9019 116.218 99.795 116.142 100.651 115.898C103.75 115.034 105.095 102.34 108.693 101.341C109.322 101.184 109.982 101.243 110.558 101.509C113.477 102.712 116.302 107.704 119.298 106.871C122.931 105.863 122.398 99.728 125.921 98.7458C129.445 97.7637 132.845 102.811 136.924 101.677C141.003 100.542 140.707 88.6525 144.944 87.4745C149.182 86.2965 152.605 90.9575 156.287 89.9322C160.331 88.8091 161.022 80.4625 161.022 80.4625Z" fill="#BE2EA7"/>
<path d="M164.009 91.7731L167.453 104.788C167.474 104.867 167.479 104.95 167.467 105.032C167.455 105.114 167.427 105.193 167.383 105.266C167.34 105.338 167.283 105.401 167.215 105.453C167.147 105.504 167.07 105.542 166.988 105.565L74.2199 131.34C74.138 131.362 74.0528 131.369 73.9692 131.36C73.8857 131.35 73.8053 131.325 73.7328 131.285C73.6602 131.245 73.5969 131.191 73.5465 131.127C73.4961 131.062 73.4595 130.988 73.4388 130.909L73.2594 130.239C73.3342 130.07 74.5624 127.302 76.7799 126.684C79.077 126.055 79.9004 127.896 83.092 126.995C86.2836 126.094 86.1543 123.437 90.6912 122.177C95.228 120.917 96.481 123.782 101.173 122.481C105.866 121.179 105.255 117.345 108.597 116.417C111.938 115.488 112.493 117.335 114.386 116.807C116.279 116.279 116.129 113.147 118.459 112.499C120.788 111.852 124.411 115.512 127.036 114.784C128.879 114.271 130.481 109.624 132.822 106.475C133.81 105.145 134.935 104.079 136.261 103.713C139.001 102.951 141.356 104.214 143.68 105.052C145.125 105.576 146.591 105.937 148.111 105.516C150.271 104.916 151.045 102.454 151.92 100.203C152.629 98.3704 153.41 96.6734 155.069 96.2104C155.891 95.9604 156.748 95.8597 157.598 95.9133C159.272 96.0415 160.061 96.8645 161.784 96.389C163.858 95.8235 164.009 91.7731 164.009 91.7731Z" fill="#BE2EA7"/>
<path d="M69.8998 93.795L64.9164 95.179C64.8012 95.2111 64.6814 95.2209 64.5637 95.2079C64.446 95.1949 64.3328 95.1594 64.2306 95.1033C64.1283 95.0472 64.0391 94.9717 63.968 94.8811C63.8969 94.7906 63.8452 94.6867 63.8161 94.5754C63.7564 94.3507 63.7916 94.1094 63.9139 93.9045C64.0362 93.6997 64.2357 93.548 64.4684 93.4828L69.4484 92.1002C69.6812 92.0364 69.9277 92.0638 70.1344 92.1765C70.3411 92.2893 70.4912 92.4783 70.5521 92.7023C70.6107 92.9271 70.5751 93.1679 70.453 93.3725C70.3308 93.5771 70.132 93.7289 69.8998 93.795Z" fill="#BE2EA7"/>
<path d="M72.0814 91.7452L72.1557 91.7123L77.1391 90.3282C77.2093 90.3069 77.2827 90.2994 77.3551 90.306C77.4275 90.3126 77.4973 90.3333 77.5605 90.3668C77.6825 90.4351 77.7713 90.5473 77.8085 90.6801C77.8391 90.8007 77.8248 90.9292 77.768 91.0431C77.7112 91.157 77.6157 91.249 77.498 91.303L77.4203 91.3374L72.4403 92.72C72.3703 92.7425 72.2966 92.7508 72.2241 92.7441C72.1515 92.7375 72.0816 92.7161 72.0189 92.6814C71.933 92.635 71.8628 92.5657 71.8162 92.4815C71.7695 92.3972 71.7484 92.3013 71.755 92.2044C71.7617 92.1076 71.7958 92.0136 71.8537 91.9331C71.9116 91.8525 71.991 91.7886 72.0828 91.7485M71.9391 91.4239C71.7234 91.5131 71.5487 91.6786 71.4512 91.8861C71.3537 92.0936 71.3409 92.3273 71.4153 92.5388C71.4897 92.7502 71.6458 92.9233 71.8511 93.0221C72.0564 93.1209 72.2953 93.138 72.5184 93.0698L77.4984 91.6872C77.5426 91.6715 77.5855 91.6524 77.6268 91.6303C77.8361 91.5363 78.0038 91.37 78.0963 91.1647C78.1889 90.9594 78.1997 90.7299 78.1265 90.5221C78.0533 90.3142 77.9015 90.1432 77.7013 90.0429C77.5011 89.9427 77.2672 89.9207 77.0461 89.9812L72.0641 91.3685C72.0211 91.3837 71.9793 91.4023 71.9391 91.4239Z" fill="#BE2EA7"/>
<path d="M79.6786 89.6347L79.7496 89.6033L84.7295 88.2207C84.8606 88.186 84.9988 88.1999 85.117 88.2597C85.2352 88.3195 85.3247 88.4208 85.368 88.5438C85.4113 88.6668 85.4053 88.8024 85.351 88.9241C85.2968 89.0458 85.1983 89.1448 85.0749 89.2014L85.0006 89.2343L80.0172 90.6184C79.947 90.6399 79.8736 90.6476 79.8012 90.641C79.7288 90.6344 79.6589 90.6136 79.5958 90.5799C79.5351 90.5464 79.4822 90.5014 79.4402 90.4473C79.3982 90.3933 79.368 90.3313 79.3512 90.265C79.3202 90.1453 79.3342 90.0175 79.3907 89.9043C79.4472 89.7912 79.5425 89.6999 79.6597 89.6469M79.516 89.3224C79.3003 89.4116 79.1256 89.5771 79.0281 89.7846C78.9306 89.9921 78.9178 90.2258 78.9922 90.4372C79.0666 90.6487 79.2227 90.8217 79.428 90.9205C79.6333 91.0194 79.8722 91.0364 80.0953 90.9682L85.0787 89.5841C85.1217 89.5689 85.1635 89.5504 85.2037 89.5287C85.413 89.4347 85.5807 89.2685 85.6732 89.0631C85.7658 88.8578 85.7766 88.6284 85.7034 88.4205C85.6302 88.2127 85.4784 88.0416 85.2782 87.9414C85.078 87.8412 84.8441 87.8191 84.623 87.8796L79.6444 89.2655C79.6002 89.2812 79.5573 89.3002 79.516 89.3224Z" fill="#BE2EA7"/>
<path d="M157.508 68.6397L157.41 68.2637L157.112 68.3219C157.081 68.2666 157.041 68.2164 156.994 68.1725L157.126 67.9044L156.783 67.7146L156.605 67.9605C156.542 67.9454 156.477 67.9375 156.412 67.937L156.311 67.6634L155.923 67.7731L155.974 68.0612C155.918 68.0934 155.866 68.1321 155.819 68.1765L155.544 68.0577L155.34 68.4004L155.586 68.5632C155.568 68.6253 155.56 68.6891 155.561 68.7529L155.275 68.8562L155.373 69.2322L155.672 69.1774C155.703 69.2316 155.743 69.2808 155.789 69.3235L155.657 69.5916L156.003 69.7799L156.178 69.5355C156.241 69.5497 156.306 69.5576 156.371 69.559L156.471 69.8326L156.86 69.7229L156.81 69.438C156.866 69.4025 156.919 69.3623 156.967 69.3179L157.239 69.4383L157.443 69.0956L157.197 68.9328C157.214 68.8717 157.223 68.8091 157.224 68.7463L157.508 68.6397ZM156.508 69.1838C156.418 69.2084 156.324 69.2069 156.237 69.1794C156.15 69.152 156.074 69.0998 156.019 69.0294C155.964 68.9591 155.932 68.8738 155.927 68.7843C155.922 68.6948 155.945 68.6052 155.992 68.5267C156.04 68.4482 156.109 68.3845 156.193 68.3434C156.276 68.3024 156.369 68.286 156.46 68.2963C156.552 68.3066 156.637 68.343 156.706 68.4011C156.774 68.4592 156.823 68.5363 156.845 68.6226C156.86 68.68 156.864 68.74 156.855 68.7992C156.846 68.8584 156.825 68.9157 156.794 68.9678C156.763 69.0199 156.721 69.0658 156.672 69.1029C156.623 69.1399 156.567 69.1674 156.508 69.1838Z" fill="#BE2EA7"/>
<path opacity="0.2" d="M122.037 130.551L120.976 130.845L122.923 138.196L123.984 137.901L122.037 130.551Z" fill="#BE2EA7"/>
<path d="M122.33 131.655L121.269 131.95L122.185 135.409L123.246 135.114L122.33 131.655Z" fill="#BE2EA7"/>
<path opacity="0.2" d="M120.146 133.064L119.086 133.358L121.032 140.709L122.093 140.414L120.146 133.064Z" fill="#BE2EA7"/>
<path d="M119.589 135.299L120.506 138.761L121.567 138.466L120.65 135.004L119.589 135.299Z" fill="#BE2EA7"/>
<path opacity="0.2" d="M117.638 132.259L116.576 132.555L118.537 139.913L119.599 139.616L117.638 132.259Z" fill="#BE2EA7"/>
<path d="M118.117 135.086L117.056 135.38L117.973 138.843L119.034 138.548L118.117 135.086Z" fill="#BE2EA7"/>
<path opacity="0.2" d="M124.806 131.338L123.746 131.632L125.692 138.983L126.753 138.688L124.806 131.338Z" fill="#BE2EA7"/>
<path d="M125.102 132.441L124.041 132.735L124.958 136.198L126.019 135.903L125.102 132.441Z" fill="#BE2EA7"/>
<path opacity="0.2" d="M126.613 128.502L125.552 128.796L127.499 136.147L128.56 135.852L126.613 128.502Z" fill="#BE2EA7"/>
<path d="M126.832 129.331L125.772 129.625L126.689 133.088L127.749 132.793L126.832 129.331Z" fill="#BE2EA7"/>
<path opacity="0.2" d="M129.502 129.735L128.442 130.029L130.388 137.38L131.449 137.085L129.502 129.735Z" fill="#BE2EA7"/>
<path d="M129.574 130.014L128.513 130.308L129.43 133.771L130.491 133.476L129.574 130.014Z" fill="#BE2EA7"/>
<path opacity="0.2" d="M130.865 125.23L129.804 125.525L131.751 132.875L132.812 132.581L130.865 125.23Z" fill="#BE2EA7"/>
<path d="M130.943 125.507L129.883 125.801L130.799 129.26L131.859 128.966L130.943 125.507Z" fill="#BE2EA7"/>
<path opacity="0.2" d="M134.477 129.196L133.417 129.491L135.364 136.842L136.424 136.547L134.477 129.196Z" fill="#BE2EA7"/>
<path d="M134.771 130.305L133.711 130.599L134.628 134.062L135.688 133.767L134.771 130.305Z" fill="#BE2EA7"/>
<path opacity="0.2" d="M136.976 128.963L135.916 129.258L137.862 136.608L138.923 136.314L136.976 128.963Z" fill="#BE2EA7"/>
<path d="M137.71 131.733L136.649 132.028L137.566 135.49L138.627 135.195L137.71 131.733Z" fill="#BE2EA7"/>
<path opacity="0.2" d="M138.141 123.679L137.08 123.974L139.027 131.325L140.087 131.03L138.141 123.679Z" fill="#BE2EA7"/>
<path d="M138.945 126.73L137.885 127.024L138.801 130.483L139.861 130.189L138.945 126.73Z" fill="#BE2EA7"/>
<path opacity="0.2" d="M141.379 126.255L140.319 126.549L142.266 133.9L143.326 133.605L141.379 126.255Z" fill="#BE2EA7"/>
<path d="M141.745 127.642L140.685 127.937L141.601 131.396L142.661 131.101L141.745 127.642Z" fill="#BE2EA7"/>
<path opacity="0.2" d="M143.255 123.673L142.195 123.968L144.141 131.319L145.202 131.024L143.255 123.673Z" fill="#BE2EA7"/>
<path d="M143.834 124.678L142.772 124.975L143.695 128.44L144.757 128.143L143.834 124.678Z" fill="#BE2EA7"/>
<path opacity="0.2" d="M144.766 119.708L143.706 120.003L145.653 127.353L146.713 127.059L144.766 119.708Z" fill="#BE2EA7"/>
<path d="M144.764 119.712L143.704 120.006L144.621 123.469L145.681 123.174L144.764 119.712Z" fill="#BE2EA7"/>
<path opacity="0.2" d="M148.386 123.701L147.325 123.996L149.272 131.347L150.333 131.052L148.386 123.701Z" fill="#BE2EA7"/>
<path d="M148.603 124.535L147.542 124.83L148.459 128.292L149.52 127.998L148.603 124.535Z" fill="#BE2EA7"/>
<path opacity="0.2" d="M151.624 126.273L150.563 126.568L152.51 133.919L153.571 133.624L151.624 126.273Z" fill="#BE2EA7"/>
<path d="M151.843 127.103L150.782 127.397L151.699 130.86L152.76 130.565L151.843 127.103Z" fill="#BE2EA7"/>
<path opacity="0.2" d="M152.977 121.72L151.917 122.015L153.864 129.366L154.924 129.071L152.977 121.72Z" fill="#BE2EA7"/>
<path d="M153.711 124.483L152.651 124.778L153.568 128.24L154.628 127.946L153.711 124.483Z" fill="#BE2EA7"/>
<path opacity="0.2" d="M154.263 116.902L153.203 117.196L155.149 124.547L156.21 124.252L154.263 116.902Z" fill="#BE2EA7"/>
<path d="M155.14 120.224L154.08 120.518L154.997 123.981L156.057 123.686L155.14 120.224Z" fill="#BE2EA7"/>
<path opacity="0.2" d="M157.748 120.392L156.687 120.687L158.634 128.038L159.694 127.743L157.748 120.392Z" fill="#BE2EA7"/>
<path d="M158.346 121.369L157.285 121.666L158.208 125.131L159.27 124.835L158.346 121.369Z" fill="#BE2EA7"/>
<path opacity="0.2" d="M160.453 120.956L159.392 121.25L161.339 128.601L162.4 128.306L160.453 120.956Z" fill="#BE2EA7"/>
<path d="M161.264 124L160.203 124.295L161.12 127.757L162.181 127.463L161.264 124Z" fill="#BE2EA7"/>
<path opacity="0.2" d="M162.231 117.997L161.171 118.292L163.117 125.643L164.178 125.348L162.231 117.997Z" fill="#BE2EA7"/>
<path d="M162.232 118L161.172 118.295L162.089 121.757L163.149 121.463L162.232 118Z" fill="#BE2EA7"/>
<path opacity="0.2" d="M165.223 119.627L164.163 119.922L166.109 127.273L167.17 126.978L165.223 119.627Z" fill="#BE2EA7"/>
<path d="M165.368 120.182L164.308 120.477L165.225 123.939L166.285 123.644L165.368 120.182Z" fill="#BE2EA7"/>
<path opacity="0.2" d="M167.348 117.972L166.287 118.267L168.234 125.617L169.295 125.323L167.348 117.972Z" fill="#BE2EA7"/>
<path d="M167.419 118.251L166.359 118.546L167.276 122.008L168.336 121.713L167.419 118.251Z" fill="#BE2EA7"/>
<path opacity="0.2" d="M169.979 118.257L168.918 118.551L170.865 125.902L171.925 125.607L169.979 118.257Z" fill="#BE2EA7"/>
<path d="M171.259 121.71L170.198 122.007L171.121 125.472L172.183 125.175L171.259 121.71Z" fill="#BE2EA7"/>
<path d="M138.047 143.806L118.073 149.357L118.232 149.955L138.205 144.404L138.047 143.806Z" fill="#999999" stroke="#263238" stroke-width="0.736498" stroke-linecap="round" stroke-linejoin="round"/>
<path opacity="0.2" d="M132.581 99.2751C132.581 99.2751 130.638 101.755 133.882 104.705C137.126 107.656 149.644 109.325 150.802 112.477C150.802 112.477 138.011 110.905 136.749 115.642C136.749 115.642 147.535 119.371 150.699 124.369C153.862 129.366 157.499 130.593 164.827 130.997C172.155 131.401 192.28 141.745 192.28 141.745L178.361 115.568L150.345 103.439L138.719 102.462L132.581 99.2751Z" fill="black" fill-opacity="0.7"/>
<path d="M205.295 124.733L193.285 142.624L193.258 142.636C193.242 142.642 193.225 142.644 193.208 142.64C193.192 142.637 193.177 142.63 193.165 142.619C193.007 142.463 177.276 126.83 174.849 126.143C173.465 125.718 172.243 124.924 171.317 123.848C171.317 123.848 171.31 123.832 171.306 123.822C171.15 123.643 171.059 123.52 171.036 123.487C169.208 122.007 166.986 121.051 164.607 120.721C163.037 120.547 161.45 120.522 159.867 120.646C157.41 120.759 154.881 120.874 152.668 119.994C152.289 119.844 151.924 119.665 151.576 119.457C147.643 117.122 142.235 115.018 140.645 114.798C139.056 114.578 136.806 115.698 136.786 115.707C136.768 115.717 136.747 115.721 136.727 115.717C136.707 115.712 136.69 115.701 136.679 115.685C136.507 115.406 136.401 115.091 136.369 114.764C136.337 114.436 136.38 114.104 136.495 113.79C136.655 113.291 136.924 112.829 137.282 112.436C137.641 112.043 138.08 111.727 138.571 111.512C140.498 110.658 143.583 110.457 145.464 111.087C147.344 111.718 150.839 111.246 151.24 111.192C151.617 110.684 153.074 110.768 153.626 110.838C152.326 109.298 152.233 108.524 152.238 108.316C150.519 107.427 142.936 105.901 138.963 105.211C137.866 105.018 137.051 104.893 136.703 104.857C134.916 104.682 132.612 102.678 132.06 100.81C131.965 100.566 131.928 100.302 131.951 100.038C131.974 99.7738 132.056 99.5163 132.193 99.2839C132.404 98.9831 132.704 98.7511 133.051 98.6203C133.191 98.5627 133.335 98.5183 133.482 98.4878C133.498 98.4874 133.514 98.4895 133.529 98.494C133.572 98.5177 137.89 100.515 139.111 100.588C139.708 100.622 142.854 100.731 145.833 100.81L147.174 100.845C146.712 99.8185 146.313 98.7649 145.979 97.6894C145.895 97.245 146.312 96.3773 146.929 95.7158C147.215 95.4028 147.775 94.8869 148.367 94.9195C148.598 94.9377 149.152 95.0028 149.922 95.0968L151.203 95.2513C151.278 94.8373 151.416 94.4346 151.612 94.0568C151.803 93.8017 153.095 92.9304 153.67 92.8776C154.174 92.837 155.951 93.0708 157.831 93.3174L158.641 93.4206C158.657 93.2466 158.711 92.8737 158.854 92.7324C159.47 92.1495 160.248 91.7565 161.084 91.6049C161.662 91.5586 163.919 92.0151 166.104 92.4567C167.304 92.7016 168.454 92.9338 169.197 93.051C169.219 93.0473 169.241 93.0514 169.259 93.0625C169.472 93.0963 169.648 93.1193 169.779 93.1313C171.3 93.2612 181.019 107.08 181.117 107.219C181.763 108.148 182.944 108.879 184.193 109.654C185.562 110.43 186.819 111.375 187.934 112.466C190.095 114.743 194.041 117.728 199.398 121.14C199.88 121.444 200.377 121.756 200.888 122.076C202.316 122.954 203.826 123.861 205.295 124.733Z" fill="white"/>
<path opacity="0.4" d="M155.305 112.164C154.877 112.94 149.986 114.551 150.081 116.318C150.138 117.36 150.987 118.6 152.655 119.992C152.276 119.842 151.911 119.663 151.563 119.455C147.63 117.12 142.222 115.016 140.632 114.796C139.043 114.576 136.806 115.698 136.786 115.707C136.768 115.717 136.747 115.721 136.727 115.717C136.707 115.712 136.69 115.701 136.679 115.685C136.507 115.406 136.401 115.091 136.369 114.764C136.337 114.436 136.38 114.104 136.495 113.79C136.655 113.291 136.924 112.829 137.282 112.436C137.641 112.043 138.08 111.727 138.571 111.512C140.498 110.658 143.583 110.457 145.464 111.087C147.344 111.718 150.839 111.246 151.24 111.192C151.617 110.684 153.074 110.768 153.626 110.838C152.326 109.298 152.233 108.524 152.238 108.316C150.519 107.427 142.936 105.901 138.963 105.211C137.866 105.018 137.051 104.893 136.703 104.857C134.916 104.682 132.612 102.678 132.06 100.81C131.965 100.566 131.928 100.302 131.951 100.038C131.974 99.7738 132.056 99.5163 132.193 99.2839C132.404 98.9831 132.704 98.7511 133.051 98.6203C132.858 98.8104 132.698 99.0309 132.58 99.2718C131.981 100.457 136.02 103.525 137.779 104.09C139.616 104.677 146.834 104.96 149.731 105.75C151.322 106.183 153.495 106.944 153.495 106.944C153.237 108.891 155.721 111.405 155.305 112.164Z" fill="#D9C4D6"/>
<path d="M166.083 77.7025C166.07 77.6718 166.067 77.6649 166.073 77.6786C166.077 77.6809 166.08 77.6844 166.082 77.6887C166.084 77.693 166.084 77.6978 166.083 77.7025Z" fill="#BE2EA7"/>
<path opacity="0.4" d="M199.391 121.124C195.863 119.942 190.541 118.024 189.147 116.766C187.015 114.838 185.32 112.937 183.276 111.909C181.231 110.881 170.908 94.8486 170.112 95.1428C169.316 95.4369 174.105 101.528 174.351 101.838C174.18 101.653 171.918 99.1571 169.516 96.2339C167.022 93.1958 165.968 93.4373 165.968 93.4373C164.789 94.2544 165.172 95.137 164.507 95.416C163.842 95.695 160.898 95.1549 160.898 95.1549C158.839 96.4317 148.353 94.9881 148.353 94.9881C146.588 96.061 146.845 97.8266 149.096 98.592C151.348 99.3574 154.529 100.084 154.529 100.084C153.306 101.487 146.298 100.946 146.298 100.946L145.83 100.803L147.172 100.838C146.709 99.8122 146.31 98.7586 145.977 97.6831C145.893 97.2387 146.309 96.371 146.926 95.7095C147.212 95.3965 147.772 94.8806 148.365 94.9132C148.595 94.9314 149.15 94.9965 149.919 95.0905L151.201 95.245C151.275 94.831 151.413 94.4283 151.61 94.0505C151.8 93.7954 153.092 92.9241 153.667 92.8713C154.171 92.8307 155.949 93.0645 157.829 93.311L158.639 93.4143C158.655 93.2403 158.708 92.8673 158.852 92.7261C159.468 92.1432 160.245 91.7501 161.082 91.5986C161.66 91.5522 163.916 92.0088 166.101 92.4504C167.301 92.6953 168.451 92.9275 169.195 93.0447C169.216 93.041 169.238 93.045 169.257 93.0562C169.47 93.09 169.646 93.113 169.776 93.125C171.298 93.2549 181.017 107.074 181.115 107.213C181.761 108.142 182.942 108.873 184.191 109.648C185.561 110.426 186.819 111.373 187.934 112.466C190.088 114.727 194.034 117.712 199.391 121.124Z" fill="#D9C4D6"/>
<path d="M193.229 142.571C193.229 142.571 177.339 126.78 174.879 126.075C173.35 125.605 172.023 124.678 171.085 123.423C169.241 121.927 166.996 120.964 164.594 120.637C160.487 120.029 155.403 121.652 151.601 119.403C147.799 117.154 142.333 114.966 140.636 114.732C138.939 114.497 136.737 115.651 136.737 115.651C135.937 114.476 136.79 112.393 138.582 111.6C140.374 110.806 143.439 110.524 145.415 111.179C147.391 111.833 151.264 111.283 151.264 111.283C151.645 110.664 153.801 110.959 153.801 110.959C152.152 109.061 152.298 108.286 152.298 108.286C150.204 107.147 138.355 104.961 136.692 104.796C135.03 104.631 132.679 102.71 132.113 100.802C132.02 100.576 131.982 100.329 132.004 100.083C132.025 99.8362 132.105 99.5961 132.236 99.3812C132.368 99.1664 132.548 98.9827 132.763 98.8446C132.977 98.7065 133.22 98.6177 133.473 98.5851C133.473 98.5851 137.83 100.608 139.08 100.683C140.331 100.758 150.01 101.056 151.381 100.985C151.766 100.974 152.145 100.873 152.487 100.691C152.828 100.508 153.122 100.25 153.343 99.937" stroke="#263238" stroke-width="0.736498" stroke-linecap="round" stroke-linejoin="round"/>
<path d="M147.3 100.928C147.3 100.928 146.193 98.4291 146.062 97.6759C145.931 96.9227 147.296 94.9202 148.353 94.9878C149.41 95.0555 157.526 96.2519 159.258 95.6983" stroke="#263238" stroke-width="0.736498" stroke-linecap="round" stroke-linejoin="round"/>
<path d="M151.261 95.3189C151.34 94.89 151.479 94.4719 151.674 94.0764C151.848 93.84 153.128 92.978 153.67 92.9322C154.753 92.8405 161.915 94.0558 162.952 93.8683" stroke="#263238" stroke-width="0.736498" stroke-linecap="round" stroke-linejoin="round"/>
<path d="M158.71 93.5029C158.71 93.5029 158.746 92.9357 158.905 92.7757C159.506 92.2057 160.266 91.8219 161.083 91.6754C162.079 91.5955 168.403 93.0924 169.761 93.2013C171.119 93.3102 179.754 105.4 181.041 107.257C182.328 109.113 185.58 110.1 187.859 112.507C190.138 114.914 194.498 118.194 200.827 122.13C201.934 122.805 203.093 123.522 204.24 124.202" stroke="#263238" stroke-width="0.736498" stroke-linecap="round" stroke-linejoin="round"/>
<path d="M154.469 104.086C154.469 104.086 154.133 102.414 154.788 101.317C155.442 100.219 157.194 100.725 158.179 100.42" stroke="#263238" stroke-width="0.736498" stroke-linecap="round" stroke-linejoin="round"/>
<path d="M159.793 98.8317C159.793 98.8317 159.545 96.8486 160.311 96.0396C161.077 95.2307 163.047 95.7713 163.697 95.5495" stroke="#263238" stroke-width="0.736498" stroke-linecap="round" stroke-linejoin="round"/>
<path d="M165.255 94.5215C165.255 94.5215 165.671 93.5609 165.965 93.4306C166.259 93.3004 168.037 93.992 168.342 93.9581C168.646 93.9242 168.758 93.3193 169.212 93.1107" stroke="#263238" stroke-width="0.736498" stroke-linecap="round" stroke-linejoin="round"/>
<path d="M162.409 93.8755C162.907 93.6113 163.474 93.5058 164.027 93.5745" stroke="#263238" stroke-width="0.736498" stroke-linecap="round" stroke-linejoin="round"/>
<path d="M152.313 108.275C152.313 108.275 151.335 107.326 151.307 106.632" stroke="#263238" stroke-width="0.736498" stroke-linecap="round" stroke-linejoin="round"/>
<path d="M149.474 99.3914C149.474 99.3914 150.31 99.7707 150.563 100.26C150.816 100.75 152.408 100.775 152.408 100.775" stroke="#263238" stroke-width="0.736498" stroke-linecap="round" stroke-linejoin="round"/>
<path d="M158.592 95.8109C158.592 95.8109 159.243 95.2082 159.768 95.2899" stroke="#263238" stroke-width="0.736498" stroke-linecap="round" stroke-linejoin="round"/>
<path d="M152.988 109.797C152.797 109.437 152.702 109.035 152.71 108.625C152.718 108.215 152.829 107.811 153.034 107.447" stroke="#263238" stroke-width="0.736498" stroke-linecap="round" stroke-linejoin="round"/>
<path d="M153.823 110.945C153.823 110.945 153.27 112.052 153.47 112.503" stroke="#263238" stroke-width="0.736498" stroke-linecap="round" stroke-linejoin="round"/>
<path d="M149.245 111.455C150.443 111.366 151.986 112.531 152.728 112.517" stroke="#263238" stroke-width="0.736498" stroke-linecap="round" stroke-linejoin="round"/>
<path d="M159.597 100.984C160.605 101.57 164.788 107.226 167.081 108.587" stroke="#263238" stroke-width="0.736498" stroke-linecap="round" stroke-linejoin="round"/>
<path d="M164.059 96.8879C164.21 96.9102 166.113 98.9872 166.113 98.9872" stroke="#263238" stroke-width="0.736498" stroke-linecap="round" stroke-linejoin="round"/>
<path d="M181.412 107.702C182.171 108.86 183.086 109.912 184.132 110.83" stroke="#263238" stroke-width="0.736498" stroke-linecap="round" stroke-linejoin="round"/>
<path d="M171.378 123.802C171.091 123.436 169.44 120.933 168.483 120.278" stroke="#263238" stroke-width="0.736498" stroke-linecap="round" stroke-linejoin="round"/>
<path opacity="0.2" d="M95.3253 207.951C95.3253 207.951 100.036 188.879 107.18 182.605C114.324 176.33 113.171 172.621 109.917 166.188C106.664 159.756 103.975 153.01 101.346 153.227C98.717 153.445 99.9202 142.631 96.0187 140.286L90.809 170.913L95.3253 207.951Z" fill="black" fill-opacity="0.7"/>
<path d="M94.4105 213.089L94.2218 213.111L94.5145 213.132L94.4105 213.089ZM101.856 157.684C100.235 157.676 96.2902 156.018 95.7974 155.809C96.2772 152.328 96.7799 148.953 97.0776 148.064C97.7026 146.234 97.4887 141.798 96.0829 140.231C94.794 138.79 93.1318 139.849 92.9085 140.002L92.8815 140.014C92.8729 140.019 92.8657 140.027 92.8603 140.035C92.8549 140.043 92.8516 140.053 92.8505 140.063C92.8406 140.141 91.814 147.619 91.3108 149.523C91.0694 150.43 90.5064 152.5 89.9144 154.587L89.5147 154.698C88.6764 154.929 87.884 155.306 87.1771 155.811L87.1108 155.871C86.7823 156.216 86.482 156.586 86.213 156.976L85.8985 156.987C85.2695 157.009 83.9815 157.087 83.4475 157.296C82.7942 157.546 80.9884 159.55 80.0024 160.957C78.9551 161.097 77.9326 161.4 76.9738 161.852C75.9614 162.351 74.2225 164.103 72.8241 165.511C72.203 166.135 71.6661 166.676 71.3335 166.948L71.0385 167.195C70.1523 167.933 69.6766 168.338 69.5715 169.999C69.4623 171.725 70.9906 177.303 71.7247 179.983L71.825 180.346C72.1109 181.384 72.8907 183.081 73.7209 184.891C74.8794 187.407 76.0753 190.006 76.1345 191.199C76.1735 192.718 76.0109 194.241 75.6508 195.731C75.6068 195.933 75.5686 196.12 75.5343 196.299C75.3568 197.323 75.3127 198.362 75.4029 199.389C75.4381 200.235 75.4339 201.185 75.4097 202.061C75.3679 203.683 75.2665 205.052 75.2665 205.052C75.2665 205.052 92.8728 212.439 94.4105 213.089C94.4759 213.085 94.5412 213.077 94.6059 213.065C94.6177 212.982 95.2213 208.374 95.9783 203.756C96.638 199.768 97.3913 195.781 97.9833 194.68C98.7695 193.112 99.0739 191.369 98.8592 189.664C98.6804 187.946 100.966 184.716 103.178 181.594C105.624 178.142 108.155 174.571 107.519 172.826C107.195 171.921 106.762 170.377 106.26 168.585C104.898 163.729 103.198 157.684 101.856 157.684ZM99.3951 167.502L98.5288 169.536C97.8161 168.493 95.7109 167.62 95.3823 167.489C95.254 166.893 95.0824 166.307 94.8689 165.737C94.6426 165.08 94.4054 164.389 94.5202 164.21C94.635 164.031 94.8545 162.509 95.209 160.022C95.9185 161.351 97.8392 162.309 98.1045 162.452L99.3951 167.502Z" fill="white"/>
<path opacity="0.4" d="M79.9865 171.055C81.2066 174.987 81.4986 185.954 81.4986 185.954L76.6837 176.909C76.6837 176.909 79.3289 190.907 78.7169 191.725C78.1049 192.544 77.7489 195.601 77.8036 197.88C77.8411 199.416 76.4033 201.109 75.4475 202.064C75.465 201.191 75.4759 200.238 75.4407 199.392C75.3505 198.365 75.3946 197.326 75.5721 196.302C75.6064 196.123 75.6446 195.936 75.6886 195.734C76.0487 194.244 76.2113 192.721 76.1723 191.202C76.1102 190.003 74.8974 187.41 73.7587 184.894C72.9285 183.084 72.1429 181.374 71.8628 180.349L71.7625 179.986C71.0284 177.306 69.5001 171.728 69.6093 170.002C69.7144 168.341 70.1969 167.933 71.0763 167.198L71.3713 166.951C71.6996 166.669 72.223 166.135 72.8619 165.514C74.2646 164.116 75.9992 162.354 77.0116 161.855C77.9668 161.409 78.9844 161.111 80.0262 160.974C81.0175 159.56 82.8179 157.563 83.4712 157.313C84.0053 157.103 85.2933 157.026 85.9223 157.004C84.1693 159.108 81.5778 163.455 81.5778 163.455C77.7022 166.235 79.9865 171.055 79.9865 171.055Z" fill="#D9C4D6"/>
<path opacity="0.4" d="M85.3525 162.738C86.1323 161.514 86.9778 160.33 87.8852 159.19C88.762 158.211 88.2424 156.089 87.2258 155.875C87.1879 155.867 87.1482 155.869 87.1105 155.879L87.1768 155.819C87.8837 155.314 88.676 154.937 89.5143 154.706C89.0022 157.375 88.5863 159.431 88.4417 159.898C87.9713 161.466 85.3525 162.738 85.3525 162.738Z" fill="#BE2EA7"/>
<path opacity="0.4" d="M96.6147 173.074L97.2268 173.059C97.4458 174.403 96.6147 173.074 96.6147 173.074Z" fill="#BE2EA7"/>
<path opacity="0.4" d="M101.856 157.684C100.235 157.676 96.2905 156.018 95.7977 155.809C96.2775 152.327 96.7802 148.952 97.0779 148.063C97.7029 146.233 97.489 141.797 96.0832 140.23C94.7943 138.79 93.1321 139.848 92.9088 140.002L92.9405 140.073C92.9405 140.073 94.9694 139.45 96.1506 142.126C97.3318 144.802 94.6763 152.318 94.6763 152.318C94.6763 152.318 93.6355 163.864 93.2356 163.874C92.8358 163.884 94.8867 170.551 94.8867 170.551C94.8867 170.551 96.839 171.088 97.1962 172.816C97.2127 172.902 97.2274 172.981 97.2404 173.053L99.8484 172.989C99.8484 172.989 101.399 170.52 103.492 172.214C105.585 173.908 97.1394 187.013 96.7163 188.586C96.7163 188.586 98.518 193.01 97.0651 194.422C96.1234 195.336 95.9677 200.344 95.98 203.759C96.6397 199.771 97.393 195.784 97.9851 194.683C98.7712 193.115 99.0756 191.372 98.8609 189.667C98.6821 187.948 100.968 184.719 103.18 181.596C105.626 178.145 108.156 174.574 107.521 172.829C107.197 171.924 106.764 170.38 106.261 168.588C104.898 163.729 103.199 157.683 101.856 157.684ZM99.3954 167.502L98.5291 169.535C97.8164 168.492 95.7112 167.619 95.3826 167.489C95.2543 166.893 95.0827 166.307 94.8692 165.736C94.6429 165.08 94.4057 164.389 94.5205 164.21C94.6353 164.031 94.8548 162.509 95.2093 160.022C95.9188 161.35 97.8395 162.309 98.1048 162.451L99.3954 167.502Z" fill="#D9C4D6"/>
<path d="M86.6443 162.267C87.4814 161.669 88.1153 160.839 88.4589 159.891C88.9886 158.348 90.8787 151.477 91.3902 149.546C91.9017 147.615 92.9305 140.078 92.9305 140.078C92.9305 140.078 94.6768 138.78 96.0259 140.283C97.3749 141.786 97.6547 146.115 97.0038 148.042C96.353 149.969 94.7678 163.654 94.4498 164.187C94.1319 164.72 95.8449 167.638 95.2327 168.693" stroke="#263238" stroke-width="0.736498" stroke-linecap="round" stroke-linejoin="round"/>
<path d="M95.3145 167.555C95.3145 167.555 97.8992 168.561 98.5475 169.714L99.4789 167.508L98.1769 162.404C98.1769 162.404 95.7902 161.279 95.1734 159.759" stroke="#263238" stroke-width="0.736498" stroke-linecap="round" stroke-linejoin="round"/>
<path d="M95.7141 155.858C95.7141 155.858 100.079 157.761 101.855 157.762C103.631 157.764 106.276 169.571 107.447 172.854C108.618 176.136 98.3991 186.032 98.7817 189.671C98.9981 191.362 98.6955 193.092 97.9118 194.646C96.6137 197.065 94.5275 213.061 94.5275 213.061" stroke="#263238" stroke-width="0.736498" stroke-linecap="round" stroke-linejoin="round"/>
<path d="M89.9944 154.649C89.9944 154.649 88.1169 155.111 87.2258 155.875C86.3347 156.638 83.2999 161.527 82.5259 162.518C81.7518 163.51 80.3017 164.28 80.2549 165.097" stroke="#263238" stroke-width="0.736498" stroke-linecap="round" stroke-linejoin="round"/>
<path d="M86.2538 157.058C86.2538 157.058 84.171 157.103 83.4806 157.37C82.7901 157.637 80.5924 160.098 79.7263 161.53C79.0627 162.636 78.2046 163.623 77.1926 164.446" stroke="#263238" stroke-width="0.736498" stroke-linecap="round" stroke-linejoin="round"/>
<path d="M80.0388 161.03C78.9945 161.162 77.9742 161.458 77.0179 161.906C75.5578 162.627 72.4533 166.098 71.3988 167.004C70.3443 167.91 69.7874 168.195 69.6751 169.996C69.5629 171.797 71.2633 177.9 71.9253 180.317C72.5873 182.734 76.1328 189.095 76.2401 191.191C76.3474 193.287 75.8831 195.096 75.6567 196.31C75.1776 198.743 75.9382 200.068 75.3108 205.052" stroke="#263238" stroke-width="0.736498" stroke-linecap="round" stroke-linejoin="round"/>
<path d="M79.0434 166.223C78.1186 168.143 79.4606 170.434 79.9729 171.061C80.4852 171.688 80.841 174.947 81.2158 176.606" stroke="#263238" stroke-width="0.736498" stroke-linecap="round" stroke-linejoin="round"/>
<path d="M89.0056 163.271C86.3257 164.524 86.2636 166.648 86.5982 167.878" stroke="#263238" stroke-width="0.736498" stroke-linecap="round" stroke-linejoin="round"/>
<path d="M76.4361 165.732C75.6105 166.032 74.09 168.15 74.5651 170.3" stroke="#263238" stroke-width="0.736498" stroke-linecap="round" stroke-linejoin="round"/>
<path d="M98.1767 162.404C98.1767 162.404 98.0911 161.134 98.4411 160.847" stroke="#263238" stroke-width="0.736498" stroke-linecap="round" stroke-linejoin="round"/>
<path d="M99.4788 167.508C99.5668 168.238 99.6014 168.975 99.5824 169.714C99.5319 170.513 100.329 171.398 100.329 171.398" stroke="#263238" stroke-width="0.736498" stroke-linecap="round" stroke-linejoin="round"/>
<path d="M98.5475 169.714C98.976 170.836 98.2388 172.568 97.8913 172.478" stroke="#263238" stroke-width="0.736498" stroke-linecap="round" stroke-linejoin="round"/>
<path d="M86.9723 172.612C87.4665 173.838 89.0921 183.67 89.0921 183.67" stroke="#263238" stroke-width="0.736498" stroke-linecap="round" stroke-linejoin="round"/>
</g>
<defs>
<clipPath id="clip0_7_1224">
<rect width="184.861" height="177.496" fill="white" transform="translate(0.348633 75.579) rotate(-23.8889)"/>
</clipPath>
</defs>
</svg>
