<svg width="30" height="35" viewBox="0 0 30 35" fill="none" xmlns="http://www.w3.org/2000/svg">
<path fill-rule="evenodd" clip-rule="evenodd" d="M8.66667 7.66667C8.66667 5.63334 9.33393 3.68329 10.5217 2.24551C11.7094 0.807735 13.3203 0 15 0C16.6797 0 18.2906 0.807735 19.4783 2.24551C20.6661 3.68329 21.3333 5.63334 21.3333 7.66667C21.3333 9.69999 20.6661 11.65 19.4783 13.0878C18.2906 14.5256 16.6797 15.3333 15 15.3333C13.3203 15.3333 11.7094 14.5256 10.5217 13.0878C9.33393 11.65 8.66667 9.69999 8.66667 7.66667ZM8.66667 19.1667C6.56704 19.1667 4.5534 20.1763 3.06874 21.9736C1.58407 23.7708 0.75 26.2083 0.75 28.75C0.75 30.275 1.25045 31.7375 2.14124 32.8159C3.03204 33.8942 4.24022 34.5 5.5 34.5H24.5C25.7598 34.5 26.968 33.8942 27.8588 32.8159C28.7496 31.7375 29.25 30.275 29.25 28.75C29.25 26.2083 28.4159 23.7708 26.9313 21.9736C25.4466 20.1763 23.433 19.1667 21.3333 19.1667H8.66667Z" fill="white"/>
</svg>
