<svg width="35" height="35" viewBox="0 0 35 35" fill="none" xmlns="http://www.w3.org/2000/svg">
<path d="M29.1667 25.5208C29.7285 25.5211 30.2686 25.7375 30.6752 26.1251C31.0818 26.5128 31.3236 27.042 31.3506 27.6032C31.3776 28.1643 31.1877 28.7143 30.8202 29.1392C30.4527 29.5641 29.9359 29.8314 29.3767 29.8856L29.1667 29.8958H5.83337C5.2716 29.8955 4.73146 29.6791 4.32489 29.2914C3.91832 28.9038 3.67648 28.3745 3.64948 27.8134C3.62249 27.2523 3.8124 26.7023 4.17988 26.2774C4.54736 25.8525 5.06422 25.5852 5.62337 25.531L5.83337 25.5208H29.1667ZM29.1667 15.3125C29.7469 15.3125 30.3033 15.5429 30.7135 15.9532C31.1237 16.3634 31.3542 16.9198 31.3542 17.5C31.3542 18.0801 31.1237 18.6365 30.7135 19.0468C30.3033 19.457 29.7469 19.6875 29.1667 19.6875H5.83337C5.25321 19.6875 4.69681 19.457 4.28658 19.0468C3.87634 18.6365 3.64587 18.0801 3.64587 17.5C3.64587 16.9198 3.87634 16.3634 4.28658 15.9532C4.69681 15.5429 5.25321 15.3125 5.83337 15.3125H29.1667ZM29.1667 5.10413C29.7469 5.10413 30.3033 5.33459 30.7135 5.74483C31.1237 6.15507 31.3542 6.71146 31.3542 7.29163C31.3542 7.87179 31.1237 8.42819 30.7135 8.83842C30.3033 9.24866 29.7469 9.47913 29.1667 9.47913H5.83337C5.25321 9.47913 4.69681 9.24866 4.28658 8.83842C3.87634 8.42819 3.64587 7.87179 3.64587 7.29163C3.64587 6.71146 3.87634 6.15507 4.28658 5.74483C4.69681 5.33459 5.25321 5.10413 5.83337 5.10413H29.1667Z" fill="white"/>
</svg>
