<svg width="27" height="33" viewBox="0 0 27 33" fill="none" xmlns="http://www.w3.org/2000/svg">
<path fill-rule="evenodd" clip-rule="evenodd" d="M13.5 0.458374C13.0819 0.458318 12.6688 0.548132 12.2885 0.72173C11.9082 0.895327 11.5696 1.14865 11.2958 1.46453C11.0219 1.78041 10.8192 2.15147 10.7013 2.55256C10.5834 2.95365 10.5531 3.37539 10.6125 3.78921C8.49846 4.41264 6.64297 5.70353 5.32341 7.46891C4.00384 9.23429 3.29108 11.3793 3.29167 13.5834V25.25H1.83333C1.44656 25.25 1.07563 25.4037 0.802136 25.6772C0.528645 25.9507 0.375 26.3216 0.375 26.7084C0.375 27.0951 0.528645 27.4661 0.802136 27.7396C1.07563 28.0131 1.44656 28.1667 1.83333 28.1667H25.1667C25.5534 28.1667 25.9244 28.0131 26.1979 27.7396C26.4714 27.4661 26.625 27.0951 26.625 26.7084C26.625 26.3216 26.4714 25.9507 26.1979 25.6772C25.9244 25.4037 25.5534 25.25 25.1667 25.25H23.7083V13.5834C23.7089 11.3793 22.9962 9.23429 21.6766 7.46891C20.357 5.70353 18.5015 4.41264 16.3875 3.78921C16.4069 3.6531 16.4167 3.51504 16.4167 3.37504C16.4167 2.60149 16.1094 1.85963 15.5624 1.31265C15.0154 0.765665 14.2735 0.458374 13.5 0.458374ZM16.4167 31.0834C16.4167 31.4701 16.263 31.8411 15.9895 32.1146C15.716 32.3881 15.3451 32.5417 14.9583 32.5417H12.0417C11.6549 32.5417 11.284 32.3881 11.0105 32.1146C10.737 31.8411 10.5833 31.4701 10.5833 31.0834C10.5833 30.6966 10.737 30.3257 11.0105 30.0522C11.284 29.7787 11.6549 29.625 12.0417 29.625H14.9583C15.3451 29.625 15.716 29.7787 15.9895 30.0522C16.263 30.3257 16.4167 30.6966 16.4167 31.0834Z" fill="white"/>
</svg>
