<svg width="14" height="14" viewBox="0 0 14 14" fill="none" xmlns="http://www.w3.org/2000/svg">
<path fill-rule="evenodd" clip-rule="evenodd" d="M7.01632 8.87868L11.6453 13.5077C11.8909 13.7533 12.2241 13.8913 12.5715 13.8913C12.9188 13.8913 13.252 13.7533 13.4976 13.5077C13.7432 13.2621 13.8812 12.9289 13.8812 12.5815C13.8812 12.2342 13.7432 11.901 13.4976 11.6554L8.86687 7.02639L13.4967 2.39739C13.6183 2.27577 13.7147 2.13139 13.7805 1.9725C13.8463 1.81362 13.8801 1.64333 13.8801 1.47137C13.88 1.29941 13.8461 1.12914 13.7803 0.970283C13.7144 0.811427 13.6179 0.667096 13.4963 0.545529C13.3747 0.423963 13.2303 0.327543 13.0714 0.261774C12.9125 0.196004 12.7422 0.162174 12.5703 0.162215C12.3983 0.162255 12.2281 0.196166 12.0692 0.26201C11.9103 0.327854 11.766 0.424342 11.6444 0.545966L7.01632 5.17496L2.38732 0.545966C2.26659 0.420854 2.12216 0.321038 1.96245 0.252341C1.80273 0.183645 1.63094 0.147445 1.45709 0.145853C1.28323 0.14426 1.1108 0.177308 0.949857 0.243068C0.788912 0.308827 0.642675 0.405982 0.519679 0.528862C0.396683 0.651742 0.299391 0.797887 0.23348 0.95877C0.167569 1.11965 0.134358 1.29205 0.135786 1.46591C0.137215 1.63976 0.173253 1.81159 0.241798 1.97137C0.310344 2.13115 0.410024 2.27567 0.535022 2.39652L5.16577 7.02639L0.535895 11.6563C0.410897 11.7771 0.311217 11.9216 0.242671 12.0814C0.174126 12.2412 0.138087 12.413 0.136659 12.5869C0.135231 12.7607 0.168441 12.9331 0.234353 13.094C0.300264 13.2549 0.397556 13.401 0.520552 13.5239C0.643548 13.6468 0.789785 13.7439 0.95073 13.8097C1.11167 13.8755 1.2841 13.9085 1.45796 13.9069C1.63181 13.9053 1.80361 13.8691 1.96332 13.8004C2.12303 13.7317 2.26747 13.6319 2.38819 13.5068L7.01632 8.87868Z" fill="#630052"/>
</svg>
