<svg width="17" height="17" viewBox="0 0 17 17" fill="none" xmlns="http://www.w3.org/2000/svg">
<path fill-rule="evenodd" clip-rule="evenodd" d="M8.55978 10.5902L13.9335 15.9639C14.2186 16.2491 14.6054 16.4093 15.0086 16.4093C15.4119 16.4093 15.7986 16.2491 16.0838 15.9639C16.3689 15.6788 16.5291 15.292 16.5291 14.8888C16.5291 14.4855 16.3689 14.0988 16.0838 13.8136L10.708 8.43993L16.0828 3.06622C16.2239 2.92503 16.3358 2.75742 16.4122 2.57298C16.4885 2.38853 16.5278 2.19085 16.5277 1.99122C16.5277 1.7916 16.4883 1.59393 16.4119 1.40952C16.3355 1.22511 16.2235 1.05756 16.0823 0.916433C15.9411 0.775309 15.7735 0.663377 15.589 0.587027C15.4046 0.510676 15.2069 0.471404 15.0073 0.471451C14.8076 0.471498 14.61 0.510863 14.4256 0.587301C14.2411 0.663738 14.0736 0.775749 13.9325 0.91694L8.55978 6.29065L3.18607 0.91694C3.04593 0.771699 2.87826 0.655825 2.69285 0.576077C2.50744 0.496329 2.30801 0.454305 2.10619 0.452456C1.90436 0.450608 1.70419 0.488972 1.51735 0.565311C1.33052 0.64165 1.16075 0.754435 1.01797 0.897084C0.875186 1.03973 0.762242 1.20939 0.685727 1.39616C0.609212 1.58292 0.570659 1.78305 0.572317 1.98488C0.573975 2.1867 0.615811 2.38618 0.695384 2.57166C0.774957 2.75714 0.890673 2.92492 1.03578 3.06521L6.41151 8.43993L1.03679 13.8146C0.891687 13.9549 0.775971 14.1227 0.696398 14.3082C0.616825 14.4937 0.574988 14.6931 0.57333 14.895C0.571672 15.0968 0.610225 15.2969 0.68674 15.4837C0.763255 15.6705 0.8762 15.8401 1.01898 15.9828C1.16177 16.1254 1.33153 16.2382 1.51837 16.3145C1.70521 16.3909 1.90538 16.4292 2.1072 16.4274C2.30902 16.4255 2.50846 16.3835 2.69386 16.3038C2.87927 16.224 3.04694 16.1082 3.18709 15.9629L8.55978 10.5902Z" fill="#FEE2FF"/>
</svg>
