<svg width="16" height="18" viewBox="0 0 16 18" fill="none" xmlns="http://www.w3.org/2000/svg">
<path d="M10.0789 9.00041V16.2583C10.1158 16.5346 10.0237 16.8294 9.81181 17.0228C9.7266 17.1082 9.62539 17.1759 9.51397 17.2221C9.40254 17.2683 9.2831 17.2921 9.16247 17.2921C9.04184 17.2921 8.9224 17.2683 8.81097 17.2221C8.69955 17.1759 8.59834 17.1082 8.51313 17.0228L6.66181 15.1715C6.56141 15.0732 6.48507 14.9531 6.43874 14.8205C6.39241 14.6879 6.37734 14.5464 6.39471 14.407V9.00041H6.36708L1.06181 2.20304C0.91224 2.01103 0.844751 1.76762 0.87409 1.526C0.90343 1.28439 1.02721 1.0642 1.21839 0.913569C1.39339 0.784622 1.58681 0.710938 1.78944 0.710938H14.6842C14.8868 0.710938 15.0802 0.784622 15.2552 0.913569C15.4464 1.0642 15.5702 1.28439 15.5995 1.526C15.6289 1.76762 15.5614 2.01103 15.4118 2.20304L10.1065 9.00041H10.0789Z" fill="#630052"/>
</svg>
