<svg width="22" height="21" viewBox="0 0 22 21" fill="none" xmlns="http://www.w3.org/2000/svg">
<path fill-rule="evenodd" clip-rule="evenodd" d="M6.65223 0.793525L4.38562 3.81567C4.26674 3.97418 4.11259 4.10283 3.93538 4.19144C3.75816 4.28004 3.56275 4.32617 3.36462 4.32617H2.85413C2.10947 4.32617 1.39531 4.62199 0.868755 5.14854C0.342201 5.67509 0.0463867 6.38925 0.0463867 7.13391V17.3439C0.0463867 18.0885 0.342201 18.8027 0.868755 19.3292C1.39531 19.8558 2.10947 20.1516 2.85413 20.1516H19.1901C19.9347 20.1516 20.6489 19.8558 21.1754 19.3292C21.702 18.8027 21.9978 18.0885 21.9978 17.3439V7.13391C21.9978 6.38925 21.702 5.67509 21.1754 5.14854C20.6489 4.62199 19.9347 4.32617 19.1901 4.32617H18.6796C18.4814 4.32617 18.286 4.28004 18.1088 4.19144C17.9316 4.10283 17.7774 3.97418 17.6586 3.81567L15.392 0.793525C15.2636 0.62234 15.0971 0.483399 14.9057 0.387703C14.7143 0.292008 14.5033 0.242188 14.2893 0.242188H7.75491C7.32098 0.242188 6.91259 0.446387 6.65223 0.793525ZM11.0221 6.36816C10.3852 6.36816 9.75458 6.49361 9.16618 6.73733C8.57779 6.98105 8.04316 7.33828 7.59282 7.78862C7.14248 8.23896 6.78525 8.77359 6.54153 9.36198C6.29781 9.95038 6.17236 10.581 6.17236 11.2179C6.17236 11.8548 6.29781 12.4854 6.54153 13.0738C6.78525 13.6622 7.14248 14.1968 7.59282 14.6472C8.04316 15.0975 8.57779 15.4547 9.16618 15.6985C9.75458 15.9422 10.3852 16.0676 11.0221 16.0676C12.3083 16.0676 13.5419 15.5567 14.4514 14.6472C15.3609 13.7377 15.8718 12.5041 15.8718 11.2179C15.8718 9.93167 15.3609 8.69812 14.4514 7.78862C13.5419 6.87912 12.3083 6.36816 11.0221 6.36816Z" fill="white"/>
</svg>
