<svg width="24" height="23" viewBox="0 0 24 23" fill="none" xmlns="http://www.w3.org/2000/svg">
<path d="M12.1399 0.0200195C5.97994 0.0200195 0.939941 5.06002 0.939941 11.22C0.939941 17.38 5.97994 22.42 12.1399 22.42C18.2999 22.42 23.3399 17.38 23.3399 11.22C23.3399 5.06002 18.2999 0.0200195 12.1399 0.0200195ZM12.1399 20.18C7.20074 20.18 3.17994 16.1592 3.17994 11.22C3.17994 6.28082 7.20074 2.26002 12.1399 2.26002C17.0791 2.26002 21.0999 6.28082 21.0999 11.22C21.0999 16.1592 17.0791 20.18 12.1399 20.18ZM17.2807 6.26962L9.89994 13.6504L6.99914 10.7608L5.41994 12.34L9.89994 16.82L18.8599 7.86002L17.2807 6.26962Z" fill="#01CD6E"/>
</svg>
